solid "<stl unit=MM>"
   facet normal 0.130526192220238 -0.991444861373786 2.03055122779108E-15
      outer loop
         vertex 21.2640835899972 23.7453675298078 19.3760287641164
         vertex 21.2640835899972 23.7453675298078 22.318
         vertex 21.254 23.74404 19.3760287641164
      endloop
   endfacet
   facet normal 0.0871557417568938 -0.996194686765388 0.000150795279658187
      outer loop
         vertex 21.254 23.74404 19.3760287641164
         vertex 21.2640835899972 23.7453675298078 22.318
         vertex 21.2506044122626 23.7441882545624 22.318
      endloop
   endfacet
   facet normal -0.130526191558615 -0.991444856347916 -0.000100689941690808
      outer loop
         vertex 21.254 23.74404 19.3760287641164
         vertex 21.2506044122626 23.7441882545624 22.318
         vertex 21.2439164100028 23.7453675298078 19.3760287641164
      endloop
   endfacet
   facet normal -0.258819039864427 -0.965925806740331 0.000201188211309301
      outer loop
         vertex 21.2439164100028 23.7453675298078 19.3760287641164
         vertex 21.2506044122626 23.7441882545624 22.318
         vertex 21.2375347925226 23.7476902486171 22.318
      endloop
   endfacet
   facet normal -0.382683430424963 -0.923879527828016 -0.000100689941690695
      outer loop
         vertex 21.2439164100028 23.7453675298078 19.3760287641164
         vertex 21.2375347925226 23.7476902486171 22.318
         vertex 21.23452 23.7492596502686 19.3760287641164
      endloop
   endfacet
   facet normal -0.573576429829883 -0.819152034975431 0.000150795279659035
      outer loop
         vertex 21.23452 23.7492596502686 19.3760287641164
         vertex 21.2375347925226 23.7476902486171 22.318
         vertex 21.226451119805 23.755451119805 22.318
      endloop
   endfacet
   facet normal -0.608761429008842 -0.793353340291142 3.30702336113495E-15
      outer loop
         vertex 21.23452 23.7492596502686 19.3760287641164
         vertex 21.226451119805 23.755451119805 22.318
         vertex 21.226451119805 23.755451119805 19.3760287641164
      endloop
   endfacet
   facet normal -0.793353340291016 -0.608761429009007 3.30700909193361E-15
      outer loop
         vertex 21.226451119805 23.755451119805 19.3760287641164
         vertex 21.226451119805 23.755451119805 22.318
         vertex 21.2202596502686 23.76352 22.318
      endloop
   endfacet
   facet normal -0.819152034975431 -0.573576429829883 -0.000150795279653142
      outer loop
         vertex 21.226451119805 23.755451119805 19.3760287641164
         vertex 21.2202596502686 23.76352 22.318
         vertex 21.2186902486171 23.7665347925226 19.3760287641164
      endloop
   endfacet
   facet normal -0.923879527828016 -0.382683430424963 0.000100689941696407
      outer loop
         vertex 21.2186902486171 23.7665347925226 19.3760287641164
         vertex 21.2202596502686 23.76352 22.318
         vertex 21.2163675298078 23.7729164100028 22.318
      endloop
   endfacet
   facet normal -0.965925806740331 -0.258819039864427 -0.000201188211303829
      outer loop
         vertex 21.2186902486171 23.7665347925226 19.3760287641164
         vertex 21.2163675298078 23.7729164100028 22.318
         vertex 21.2151882545623 23.7796044122626 19.3760287641164
      endloop
   endfacet
   facet normal -0.991444856347922 -0.130526191558571 0.00010068994169605
      outer loop
         vertex 21.2151882545623 23.7796044122626 19.3760287641164
         vertex 21.2163675298078 23.7729164100028 22.318
         vertex 21.21504 23.783 22.318
      endloop
   endfacet
   facet normal -0.996194686765386 0.087155741756916 -0.000150795279653924
      outer loop
         vertex 21.2151882545623 23.7796044122626 19.3760287641164
         vertex 21.21504 23.783 22.318
         vertex 21.2163675298078 23.7930835899972 19.3760287641164
      endloop
   endfacet
   facet normal -0.99144486137378 0.130526192220282 2.03055122779096E-15
      outer loop
         vertex 21.2163675298078 23.7930835899972 19.3760287641164
         vertex 21.21504 23.783 22.318
         vertex 21.2163675298078 23.7930835899972 22.318
      endloop
   endfacet
   facet normal -0.906307787036742 0.422618261740502 1.14082362788766E-15
      outer loop
         vertex 21.2163675298078 23.7930835899972 19.3760287641164
         vertex 21.2163675298078 23.7930835899972 22.318
         vertex 21.2220858363545 23.8053465379602 22.318
      endloop
   endfacet
   facet normal 0.422618261740713 -0.906307787036644 1.14082362788693E-15
      outer loop
         vertex 21.2640835899972 23.7453675298078 19.3760287641164
         vertex 21.2763465379602 23.7510858363545 19.3760287641164
         vertex 21.2640835899972 23.7453675298078 22.318
      endloop
   endfacet
   facet normal 0.422618261740713 -0.906307787036644 1.14061985340889E-15
      outer loop
         vertex 21.2640835899972 23.7453675298078 22.318
         vertex 21.2763465379602 23.7510858363545 19.3760287641164
         vertex 21.2763465379602 23.7510858363545 22.318
      endloop
   endfacet
   facet normal 0.707106781186548 -0.707106781186548 0
      outer loop
         vertex 21.2763465379602 23.7510858363545 19.3760287641164
         vertex 21.2859141636455 23.7606534620398 19.3760287641164
         vertex 21.2763465379602 23.7510858363545 22.318
      endloop
   endfacet
   facet normal 0.707106781186548 -0.707106781186548 0
      outer loop
         vertex 21.2763465379602 23.7510858363545 22.318
         vertex 21.2859141636455 23.7606534620398 19.3760287641164
         vertex 21.2859141636455 23.7606534620398 22.318
      endloop
   endfacet
   facet normal 0.906307787036742 -0.422618261740502 -1.14082362788766E-15
      outer loop
         vertex 21.2859141636455 23.7606534620398 19.3760287641164
         vertex 21.2916324701922 23.7729164100028 19.3760287641164
         vertex 21.2859141636455 23.7606534620398 22.318
      endloop
   endfacet
   facet normal 0.906307787036742 -0.422618261740502 -1.14061985340901E-15
      outer loop
         vertex 21.2859141636455 23.7606534620398 22.318
         vertex 21.2916324701922 23.7729164100028 19.3760287641164
         vertex 21.2916324701922 23.7729164100028 22.318
      endloop
   endfacet
   facet normal 0.996194698091729 -0.0871557427478427 -2.14404708948673E-15
      outer loop
         vertex 21.2916324701922 23.7729164100028 19.3760287641164
         vertex 21.2928117454377 23.7863955877375 19.3760287641164
         vertex 21.2916324701922 23.7729164100028 22.318
      endloop
   endfacet
   facet normal 0.996194698091729 -0.0871557427478427 -2.14406012012187E-15
      outer loop
         vertex 21.2916324701922 23.7729164100028 22.318
         vertex 21.2928117454377 23.7863955877375 19.3760287641164
         vertex 21.2928117454377 23.7863955877375 22.318
      endloop
   endfacet
   facet normal 0.965925826289075 0.258819045102497 -2.88866682933023E-15
      outer loop
         vertex 21.2928117454377 23.7863955877375 19.3760287641164
         vertex 21.289309751383 23.7994652074774 19.3760287641164
         vertex 21.2928117454377 23.7863955877375 22.318
      endloop
   endfacet
   facet normal 0.965925826289075 0.258819045102497 -2.88872611323095E-15
      outer loop
         vertex 21.2928117454377 23.7863955877375 22.318
         vertex 21.289309751383 23.7994652074774 19.3760287641164
         vertex 21.289309751383 23.7994652074774 22.318
      endloop
   endfacet
   facet normal 0.819152044288953 0.573576436351102 -3.28487071737421E-15
      outer loop
         vertex 21.289309751383 23.7994652074774 19.3760287641164
         vertex 21.281548880195 23.810548880195 19.3760287641164
         vertex 21.289309751383 23.7994652074774 22.318
      endloop
   endfacet
   facet normal 0.819152044288953 0.573576436351102 -3.28484231623566E-15
      outer loop
         vertex 21.289309751383 23.7994652074774 22.318
         vertex 21.281548880195 23.810548880195 19.3760287641164
         vertex 21.281548880195 23.810548880195 22.318
      endloop
   endfacet
   facet normal 0.57357643635105 0.819152044288989 -3.28487071737418E-15
      outer loop
         vertex 21.281548880195 23.810548880195 19.3760287641164
         vertex 21.2704652074774 23.818309751383 19.3760287641164
         vertex 21.281548880195 23.810548880195 22.318
      endloop
   endfacet
   facet normal 0.57357643635105 0.819152044288989 -3.28516700164913E-15
      outer loop
         vertex 21.281548880195 23.810548880195 22.318
         vertex 21.2704652074774 23.818309751383 19.3760287641164
         vertex 21.2704652074774 23.818309751383 22.318
      endloop
   endfacet
   facet normal 0.258819045102497 0.965925826289075 -2.88866682933023E-15
      outer loop
         vertex 21.2704652074774 23.818309751383 19.3760287641164
         vertex 21.2573955877375 23.8218117454377 19.3760287641164
         vertex 21.2704652074774 23.818309751383 22.318
      endloop
   endfacet
   facet normal 0.258819045102497 0.965925826289075 -2.88872611323095E-15
      outer loop
         vertex 21.2704652074774 23.818309751383 22.318
         vertex 21.2573955877375 23.8218117454377 19.3760287641164
         vertex 21.2573955877375 23.8218117454377 22.318
      endloop
   endfacet
   facet normal -0.0871557427478204 0.996194698091731 -2.14404708948678E-15
      outer loop
         vertex 21.2573955877375 23.8218117454377 19.3760287641164
         vertex 21.2439164100028 23.8206324701922 19.3760287641164
         vertex 21.2573955877375 23.8218117454377 22.318
      endloop
   endfacet
   facet normal -0.0871557427478204 0.996194698091731 -2.14406012012132E-15
      outer loop
         vertex 21.2573955877375 23.8218117454377 22.318
         vertex 21.2439164100028 23.8206324701922 19.3760287641164
         vertex 21.2439164100028 23.8206324701922 22.318
      endloop
   endfacet
   facet normal -0.422618261740713 0.906307787036644 -1.14082362788693E-15
      outer loop
         vertex 21.2439164100028 23.8206324701922 19.3760287641164
         vertex 21.2316534620398 23.8149141636455 19.3760287641164
         vertex 21.2439164100028 23.8206324701922 22.318
      endloop
   endfacet
   facet normal -0.422618261740713 0.906307787036644 -1.14094453882119E-15
      outer loop
         vertex 21.2439164100028 23.8206324701922 22.318
         vertex 21.2316534620398 23.8149141636455 19.3760287641164
         vertex 21.2316534620398 23.8149141636455 22.318
      endloop
   endfacet
   facet normal -0.707106781186548 0.707106781186548 0
      outer loop
         vertex 21.2316534620398 23.8149141636455 19.3760287641164
         vertex 21.2220858363545 23.8053465379602 19.3760287641164
         vertex 21.2316534620398 23.8149141636455 22.318
      endloop
   endfacet
   facet normal -0.707106781186548 0.707106781186548 0
      outer loop
         vertex 21.2316534620398 23.8149141636455 22.318
         vertex 21.2220858363545 23.8053465379602 19.3760287641164
         vertex 21.2220858363545 23.8053465379602 22.318
      endloop
   endfacet
   facet normal -0.906307787036742 0.422618261740502 1.14082362788766E-15
      outer loop
         vertex 21.2220858363545 23.8053465379602 19.3760287641164
         vertex 21.2163675298078 23.7930835899972 19.3760287641164
         vertex 21.2220858363545 23.8053465379602 22.318
      endloop
   endfacet
   facet normal 0 0 -1
      outer loop
         vertex 21.2151882545623 23.7796044122626 19.3760287641164
         vertex 21.2163675298078 23.7930835899972 19.3760287641164
         vertex 21.2186902486171 23.7665347925226 19.3760287641164
      endloop
   endfacet
   facet normal 0 0 -1
      outer loop
         vertex 21.2186902486171 23.7665347925226 19.3760287641164
         vertex 21.2163675298078 23.7930835899972 19.3760287641164
         vertex 21.2220858363545 23.8053465379602 19.3760287641164
      endloop
   endfacet
   facet normal 0 0 -1
      outer loop
         vertex 21.2186902486171 23.7665347925226 19.3760287641164
         vertex 21.2220858363545 23.8053465379602 19.3760287641164
         vertex 21.226451119805 23.755451119805 19.3760287641164
      endloop
   endfacet
   facet normal 0 0 -1
      outer loop
         vertex 21.226451119805 23.755451119805 19.3760287641164
         vertex 21.2220858363545 23.8053465379602 19.3760287641164
         vertex 21.2316534620398 23.8149141636455 19.3760287641164
      endloop
   endfacet
   facet normal 0 0 -1
      outer loop
         vertex 21.226451119805 23.755451119805 19.3760287641164
         vertex 21.2316534620398 23.8149141636455 19.3760287641164
         vertex 21.23452 23.7492596502686 19.3760287641164
      endloop
   endfacet
   facet normal 0 0 -1
      outer loop
         vertex 21.23452 23.7492596502686 19.3760287641164
         vertex 21.2316534620398 23.8149141636455 19.3760287641164
         vertex 21.2439164100028 23.7453675298078 19.3760287641164
      endloop
   endfacet
   facet normal 0 0 -1
      outer loop
         vertex 21.2316534620398 23.8149141636455 19.3760287641164
         vertex 21.2439164100028 23.8206324701922 19.3760287641164
         vertex 21.2439164100028 23.7453675298078 19.3760287641164
      endloop
   endfacet
   facet normal 0 0 -1
      outer loop
         vertex 21.2439164100028 23.7453675298078 19.3760287641164
         vertex 21.2439164100028 23.8206324701922 19.3760287641164
         vertex 21.254 23.74404 19.3760287641164
      endloop
   endfacet
   facet normal 0 0 -1
      outer loop
         vertex 21.2439164100028 23.8206324701922 19.3760287641164
         vertex 21.2573955877375 23.8218117454377 19.3760287641164
         vertex 21.254 23.74404 19.3760287641164
      endloop
   endfacet
   facet normal 0 0 -1
      outer loop
         vertex 21.254 23.74404 19.3760287641164
         vertex 21.2573955877375 23.8218117454377 19.3760287641164
         vertex 21.2640835899972 23.7453675298078 19.3760287641164
      endloop
   endfacet
   facet normal 0 0 -1
      outer loop
         vertex 21.2573955877375 23.8218117454377 19.3760287641164
         vertex 21.2704652074774 23.818309751383 19.3760287641164
         vertex 21.2640835899972 23.7453675298078 19.3760287641164
      endloop
   endfacet
   facet normal 0 0 -1
      outer loop
         vertex 21.2640835899972 23.7453675298078 19.3760287641164
         vertex 21.2704652074774 23.818309751383 19.3760287641164
         vertex 21.2763465379602 23.7510858363545 19.3760287641164
      endloop
   endfacet
   facet normal 0 0 -1
      outer loop
         vertex 21.2704652074774 23.818309751383 19.3760287641164
         vertex 21.281548880195 23.810548880195 19.3760287641164
         vertex 21.2763465379602 23.7510858363545 19.3760287641164
      endloop
   endfacet
   facet normal 0 0 -1
      outer loop
         vertex 21.2763465379602 23.7510858363545 19.3760287641164
         vertex 21.281548880195 23.810548880195 19.3760287641164
         vertex 21.2859141636455 23.7606534620398 19.3760287641164
      endloop
   endfacet
   facet normal 0 0 -1
      outer loop
         vertex 21.281548880195 23.810548880195 19.3760287641164
         vertex 21.289309751383 23.7994652074774 19.3760287641164
         vertex 21.2859141636455 23.7606534620398 19.3760287641164
      endloop
   endfacet
   facet normal 0 0 -1
      outer loop
         vertex 21.2859141636455 23.7606534620398 19.3760287641164
         vertex 21.289309751383 23.7994652074774 19.3760287641164
         vertex 21.2916324701922 23.7729164100028 19.3760287641164
      endloop
   endfacet
   facet normal 0 0 -1
      outer loop
         vertex 21.289309751383 23.7994652074774 19.3760287641164
         vertex 21.2928117454377 23.7863955877375 19.3760287641164
         vertex 21.2916324701922 23.7729164100028 19.3760287641164
      endloop
   endfacet
   facet normal 0 0 1
      outer loop
         vertex 21.2916324701922 23.7729164100028 22.318
         vertex 21.289309751383 23.7994652074774 22.318
         vertex 21.2859141636455 23.7606534620398 22.318
      endloop
   endfacet
   facet normal 0 0 1
      outer loop
         vertex 21.2859141636455 23.7606534620398 22.318
         vertex 21.289309751383 23.7994652074774 22.318
         vertex 21.281548880195 23.810548880195 22.318
      endloop
   endfacet
   facet normal 0 0 1
      outer loop
         vertex 21.2859141636455 23.7606534620398 22.318
         vertex 21.281548880195 23.810548880195 22.318
         vertex 21.2763465379602 23.7510858363545 22.318
      endloop
   endfacet
   facet normal 0 0 1
      outer loop
         vertex 21.2763465379602 23.7510858363545 22.318
         vertex 21.281548880195 23.810548880195 22.318
         vertex 21.2704652074774 23.818309751383 22.318
      endloop
   endfacet
   facet normal 0 0 1
      outer loop
         vertex 21.2763465379602 23.7510858363545 22.318
         vertex 21.2704652074774 23.818309751383 22.318
         vertex 21.2640835899972 23.7453675298078 22.318
      endloop
   endfacet
   facet normal 0 0 1
      outer loop
         vertex 21.2640835899972 23.7453675298078 22.318
         vertex 21.2704652074774 23.818309751383 22.318
         vertex 21.2573955877375 23.8218117454377 22.318
      endloop
   endfacet
   facet normal 0 0 1
      outer loop
         vertex 21.2640835899972 23.7453675298078 22.318
         vertex 21.2573955877375 23.8218117454377 22.318
         vertex 21.2506044122626 23.7441882545624 22.318
      endloop
   endfacet
   facet normal 0 0 1
      outer loop
         vertex 21.2506044122626 23.7441882545624 22.318
         vertex 21.2573955877375 23.8218117454377 22.318
         vertex 21.2439164100028 23.8206324701922 22.318
      endloop
   endfacet
   facet normal 0 0 1
      outer loop
         vertex 21.2506044122626 23.7441882545624 22.318
         vertex 21.2439164100028 23.8206324701922 22.318
         vertex 21.2375347925226 23.7476902486171 22.318
      endloop
   endfacet
   facet normal 0 0 1
      outer loop
         vertex 21.2375347925226 23.7476902486171 22.318
         vertex 21.2439164100028 23.8206324701922 22.318
         vertex 21.2316534620398 23.8149141636455 22.318
      endloop
   endfacet
   facet normal 0 0 1
      outer loop
         vertex 21.2375347925226 23.7476902486171 22.318
         vertex 21.2316534620398 23.8149141636455 22.318
         vertex 21.226451119805 23.755451119805 22.318
      endloop
   endfacet
   facet normal 0 0 1
      outer loop
         vertex 21.226451119805 23.755451119805 22.318
         vertex 21.2316534620398 23.8149141636455 22.318
         vertex 21.2220858363545 23.8053465379602 22.318
      endloop
   endfacet
   facet normal 0 0 1
      outer loop
         vertex 21.226451119805 23.755451119805 22.318
         vertex 21.2220858363545 23.8053465379602 22.318
         vertex 21.2202596502686 23.76352 22.318
      endloop
   endfacet
   facet normal 0 0 1
      outer loop
         vertex 21.2202596502686 23.76352 22.318
         vertex 21.2220858363545 23.8053465379602 22.318
         vertex 21.2163675298078 23.7729164100028 22.318
      endloop
   endfacet
   facet normal 0 0 1
      outer loop
         vertex 21.2916324701922 23.7729164100028 22.318
         vertex 21.2928117454377 23.7863955877375 22.318
         vertex 21.289309751383 23.7994652074774 22.318
      endloop
   endfacet
   facet normal 0 0 1
      outer loop
         vertex 21.2220858363545 23.8053465379602 22.318
         vertex 21.2163675298078 23.7930835899972 22.318
         vertex 21.2163675298078 23.7729164100028 22.318
      endloop
   endfacet
   facet normal 0 0 1
      outer loop
         vertex 21.2163675298078 23.7729164100028 22.318
         vertex 21.2163675298078 23.7930835899972 22.318
         vertex 21.21504 23.783 22.318
      endloop
   endfacet
endsolid
solid "<stl unit=MM>"
   facet normal 0 0 -1
      outer loop
         vertex 21.2151882545623 23.2796044122626 17.8760287641164
         vertex 21.2163675298078 23.2930835899972 17.8760287641164
         vertex 21.2186902486171 23.2665347925226 17.8760287641164
      endloop
   endfacet
   facet normal 0 0 -1
      outer loop
         vertex 21.2186902486171 23.2665347925226 17.8760287641164
         vertex 21.2163675298078 23.2930835899972 17.8760287641164
         vertex 21.2220858363545 23.3053465379602 17.8760287641164
      endloop
   endfacet
   facet normal 0 0 -1
      outer loop
         vertex 21.2186902486171 23.2665347925226 17.8760287641164
         vertex 21.2220858363545 23.3053465379602 17.8760287641164
         vertex 21.226451119805 23.255451119805 17.8760287641164
      endloop
   endfacet
   facet normal 0 0 -1
      outer loop
         vertex 21.226451119805 23.255451119805 17.8760287641164
         vertex 21.2220858363545 23.3053465379602 17.8760287641164
         vertex 21.2316534620398 23.3149141636455 17.8760287641164
      endloop
   endfacet
   facet normal 0 0 -1
      outer loop
         vertex 21.226451119805 23.255451119805 17.8760287641164
         vertex 21.2316534620398 23.3149141636455 17.8760287641164
         vertex 21.23452 23.2492596502686 17.8760287641164
      endloop
   endfacet
   facet normal 0 0 -1
      outer loop
         vertex 21.23452 23.2492596502686 17.8760287641164
         vertex 21.2316534620398 23.3149141636455 17.8760287641164
         vertex 21.2439164100028 23.2453675298078 17.8760287641164
      endloop
   endfacet
   facet normal 0 0 -1
      outer loop
         vertex 21.2316534620398 23.3149141636455 17.8760287641164
         vertex 21.2439164100028 23.3206324701922 17.8760287641164
         vertex 21.2439164100028 23.2453675298078 17.8760287641164
      endloop
   endfacet
   facet normal 0 0 -1
      outer loop
         vertex 21.2439164100028 23.2453675298078 17.8760287641164
         vertex 21.2439164100028 23.3206324701922 17.8760287641164
         vertex 21.254 23.24404 17.8760287641164
      endloop
   endfacet
   facet normal 0 0 -1
      outer loop
         vertex 21.2439164100028 23.3206324701922 17.8760287641164
         vertex 21.2573955877375 23.3218117454377 17.8760287641164
         vertex 21.254 23.24404 17.8760287641164
      endloop
   endfacet
   facet normal 0 0 -1
      outer loop
         vertex 21.254 23.24404 17.8760287641164
         vertex 21.2573955877375 23.3218117454377 17.8760287641164
         vertex 21.2640835899972 23.2453675298078 17.8760287641164
      endloop
   endfacet
   facet normal 0 0 -1
      outer loop
         vertex 21.2573955877375 23.3218117454377 17.8760287641164
         vertex 21.2704652074774 23.318309751383 17.8760287641164
         vertex 21.2640835899972 23.2453675298078 17.8760287641164
      endloop
   endfacet
   facet normal 0 0 -1
      outer loop
         vertex 21.2640835899972 23.2453675298078 17.8760287641164
         vertex 21.2704652074774 23.318309751383 17.8760287641164
         vertex 21.2763465379602 23.2510858363545 17.8760287641164
      endloop
   endfacet
   facet normal 0 0 -1
      outer loop
         vertex 21.2704652074774 23.318309751383 17.8760287641164
         vertex 21.281548880195 23.310548880195 17.8760287641164
         vertex 21.2763465379602 23.2510858363545 17.8760287641164
      endloop
   endfacet
   facet normal 0 0 -1
      outer loop
         vertex 21.2763465379602 23.2510858363545 17.8760287641164
         vertex 21.281548880195 23.310548880195 17.8760287641164
         vertex 21.2859141636455 23.2606534620398 17.8760287641164
      endloop
   endfacet
   facet normal 0 0 -1
      outer loop
         vertex 21.281548880195 23.310548880195 17.8760287641164
         vertex 21.289309751383 23.2994652074774 17.8760287641164
         vertex 21.2859141636455 23.2606534620398 17.8760287641164
      endloop
   endfacet
   facet normal 0 0 -1
      outer loop
         vertex 21.2859141636455 23.2606534620398 17.8760287641164
         vertex 21.289309751383 23.2994652074774 17.8760287641164
         vertex 21.2916324701922 23.2729164100028 17.8760287641164
      endloop
   endfacet
   facet normal 0 0 -1
      outer loop
         vertex 21.289309751383 23.2994652074774 17.8760287641164
         vertex 21.2928117454377 23.2863955877374 17.8760287641164
         vertex 21.2916324701922 23.2729164100028 17.8760287641164
      endloop
   endfacet
   facet normal 0.130526192220238 -0.991444861373786 0
      outer loop
         vertex 21.2640835899972 23.2453675298078 17.8760287641164
         vertex 21.2640835899972 23.2453675298078 19.318
         vertex 21.254 23.24404 17.8760287641164
      endloop
   endfacet
   facet normal 0.0871557386229991 -0.996194650944809 0.000307658952039549
      outer loop
         vertex 21.254 23.24404 17.8760287641164
         vertex 21.2640835899972 23.2453675298078 19.318
         vertex 21.2506044122626 23.2441882545623 19.318
      endloop
   endfacet
   facet normal -0.130526189466032 -0.991444840453168 -0.000205431911597279
      outer loop
         vertex 21.254 23.24404 17.8760287641164
         vertex 21.2506044122626 23.2441882545623 19.318
         vertex 21.2439164100028 23.2453675298078 17.8760287641164
      endloop
   endfacet
   facet normal -0.25881902329856 -0.965925744915676 0.000410472745952784
      outer loop
         vertex 21.2439164100028 23.2453675298078 17.8760287641164
         vertex 21.2506044122626 23.2441882545623 19.318
         vertex 21.2375347925226 23.2476902486171 19.318
      endloop
   endfacet
   facet normal -0.382683424289819 -0.923879513016469 -0.000205431911597936
      outer loop
         vertex 21.2439164100028 23.2453675298078 17.8760287641164
         vertex 21.2375347925226 23.2476902486171 19.318
         vertex 21.23452 23.2492596502686 17.8760287641164
      endloop
   endfacet
   facet normal -0.573576409207901 -0.819152005519207 0.000307658952045629
      outer loop
         vertex 21.23452 23.2492596502686 17.8760287641164
         vertex 21.2375347925226 23.2476902486171 19.318
         vertex 21.226451119805 23.255451119805 19.318
      endloop
   endfacet
   facet normal -0.608761429008842 -0.793353340291142 2.69885206105164E-14
      outer loop
         vertex 21.23452 23.2492596502686 17.8760287641164
         vertex 21.226451119805 23.255451119805 19.318
         vertex 21.226451119805 23.255451119805 17.8760287641164
      endloop
   endfacet
   facet normal -0.793353340288686 -0.608761429012042 2.69884041599966E-14
      outer loop
         vertex 21.226451119805 23.255451119805 17.8760287641164
         vertex 21.226451119805 23.255451119805 19.318
         vertex 21.2202596502686 23.26352 19.318
      endloop
   endfacet
   facet normal -0.819152005520846 -0.573576409205561 -0.000307658952040333
      outer loop
         vertex 21.226451119805 23.255451119805 17.8760287641164
         vertex 21.2202596502686 23.26352 19.318
         vertex 21.2186902486171 23.2665347925226 17.8760287641164
      endloop
   endfacet
   facet normal -0.923879513016469 -0.382683424289819 0.000205431911597015
      outer loop
         vertex 21.2186902486171 23.2665347925226 17.8760287641164
         vertex 21.2202596502686 23.26352 19.318
         vertex 21.2163675298078 23.2729164100028 19.318
      endloop
   endfacet
   facet normal -0.965925744915676 -0.25881902329856 -0.000410472745953406
      outer loop
         vertex 21.2186902486171 23.2665347925226 17.8760287641164
         vertex 21.2163675298078 23.2729164100028 19.318
         vertex 21.2151882545623 23.2796044122626 17.8760287641164
      endloop
   endfacet
   facet normal -0.991444840453174 -0.130526189465987 0.000205431911597174
      outer loop
         vertex 21.2151882545623 23.2796044122626 17.8760287641164
         vertex 21.2163675298078 23.2729164100028 19.318
         vertex 21.21504 23.283 19.318
      endloop
   endfacet
   facet normal -0.996194650944807 0.0871557386230214 -0.000307658952039601
      outer loop
         vertex 21.2151882545623 23.2796044122626 17.8760287641164
         vertex 21.21504 23.283 19.318
         vertex 21.2163675298078 23.2930835899972 17.8760287641164
      endloop
   endfacet
   facet normal -0.99144486137378 0.130526192220282 0
      outer loop
         vertex 21.2163675298078 23.2930835899972 17.8760287641164
         vertex 21.21504 23.283 19.318
         vertex 21.2163675298078 23.2930835899972 19.318
      endloop
   endfacet
   facet normal -0.906307787036742 0.422618261740502 0
      outer loop
         vertex 21.2163675298078 23.2930835899972 17.8760287641164
         vertex 21.2163675298078 23.2930835899972 19.318
         vertex 21.2220858363545 23.3053465379602 19.318
      endloop
   endfacet
   facet normal 0.422618261740713 -0.906307787036644 0
      outer loop
         vertex 21.2640835899972 23.2453675298078 17.8760287641164
         vertex 21.2763465379602 23.2510858363545 17.8760287641164
         vertex 21.2640835899972 23.2453675298078 19.318
      endloop
   endfacet
   facet normal 0.422618261740713 -0.906307787036644 0
      outer loop
         vertex 21.2640835899972 23.2453675298078 19.318
         vertex 21.2763465379602 23.2510858363545 17.8760287641164
         vertex 21.2763465379602 23.2510858363545 19.318
      endloop
   endfacet
   facet normal 0.707106781186548 -0.707106781186548 0
      outer loop
         vertex 21.2763465379602 23.2510858363545 17.8760287641164
         vertex 21.2859141636455 23.2606534620398 17.8760287641164
         vertex 21.2763465379602 23.2510858363545 19.318
      endloop
   endfacet
   facet normal 0.707106781186548 -0.707106781186548 0
      outer loop
         vertex 21.2763465379602 23.2510858363545 19.318
         vertex 21.2859141636455 23.2606534620398 17.8760287641164
         vertex 21.2859141636455 23.2606534620398 19.318
      endloop
   endfacet
   facet normal 0.906307787036742 -0.422618261740502 0
      outer loop
         vertex 21.2859141636455 23.2606534620398 17.8760287641164
         vertex 21.2916324701922 23.2729164100028 17.8760287641164
         vertex 21.2859141636455 23.2606534620398 19.318
      endloop
   endfacet
   facet normal 0.906307787036742 -0.422618261740502 0
      outer loop
         vertex 21.2859141636455 23.2606534620398 19.318
         vertex 21.2916324701922 23.2729164100028 17.8760287641164
         vertex 21.2916324701922 23.2729164100028 19.318
      endloop
   endfacet
   facet normal 0.996194698091729 -0.0871557427478427 0
      outer loop
         vertex 21.2916324701922 23.2729164100028 17.8760287641164
         vertex 21.2928117454377 23.2863955877374 17.8760287641164
         vertex 21.2916324701922 23.2729164100028 19.318
      endloop
   endfacet
   facet normal 0.996194698091729 -0.0871557427478427 0
      outer loop
         vertex 21.2916324701922 23.2729164100028 19.318
         vertex 21.2928117454377 23.2863955877374 17.8760287641164
         vertex 21.2928117454377 23.2863955877374 19.318
      endloop
   endfacet
   facet normal 0.965925826289075 0.258819045102497 0
      outer loop
         vertex 21.2928117454377 23.2863955877374 17.8760287641164
         vertex 21.289309751383 23.2994652074774 17.8760287641164
         vertex 21.2928117454377 23.2863955877374 19.318
      endloop
   endfacet
   facet normal 0.965925826289075 0.258819045102497 0
      outer loop
         vertex 21.2928117454377 23.2863955877374 19.318
         vertex 21.289309751383 23.2994652074774 17.8760287641164
         vertex 21.289309751383 23.2994652074774 19.318
      endloop
   endfacet
   facet normal 0.819152044288953 0.573576436351102 0
      outer loop
         vertex 21.289309751383 23.2994652074774 17.8760287641164
         vertex 21.281548880195 23.310548880195 17.8760287641164
         vertex 21.289309751383 23.2994652074774 19.318
      endloop
   endfacet
   facet normal 0.819152044288953 0.573576436351102 0
      outer loop
         vertex 21.289309751383 23.2994652074774 19.318
         vertex 21.281548880195 23.310548880195 17.8760287641164
         vertex 21.281548880195 23.310548880195 19.318
      endloop
   endfacet
   facet normal 0.57357643635105 0.819152044288989 0
      outer loop
         vertex 21.281548880195 23.310548880195 17.8760287641164
         vertex 21.2704652074774 23.318309751383 17.8760287641164
         vertex 21.281548880195 23.310548880195 19.318
      endloop
   endfacet
   facet normal 0.57357643635105 0.819152044288989 0
      outer loop
         vertex 21.281548880195 23.310548880195 19.318
         vertex 21.2704652074774 23.318309751383 17.8760287641164
         vertex 21.2704652074774 23.318309751383 19.318
      endloop
   endfacet
   facet normal 0.258819045102497 0.965925826289075 0
      outer loop
         vertex 21.2704652074774 23.318309751383 17.8760287641164
         vertex 21.2573955877375 23.3218117454377 17.8760287641164
         vertex 21.2704652074774 23.318309751383 19.318
      endloop
   endfacet
   facet normal 0.258819045102497 0.965925826289075 0
      outer loop
         vertex 21.2704652074774 23.318309751383 19.318
         vertex 21.2573955877375 23.3218117454377 17.8760287641164
         vertex 21.2573955877375 23.3218117454377 19.318
      endloop
   endfacet
   facet normal -0.0871557427478204 0.996194698091731 0
      outer loop
         vertex 21.2573955877375 23.3218117454377 17.8760287641164
         vertex 21.2439164100028 23.3206324701922 17.8760287641164
         vertex 21.2573955877375 23.3218117454377 19.318
      endloop
   endfacet
   facet normal -0.0871557427478204 0.996194698091731 0
      outer loop
         vertex 21.2573955877375 23.3218117454377 19.318
         vertex 21.2439164100028 23.3206324701922 17.8760287641164
         vertex 21.2439164100028 23.3206324701922 19.318
      endloop
   endfacet
   facet normal -0.422618261740713 0.906307787036644 0
      outer loop
         vertex 21.2439164100028 23.3206324701922 17.8760287641164
         vertex 21.2316534620398 23.3149141636455 17.8760287641164
         vertex 21.2439164100028 23.3206324701922 19.318
      endloop
   endfacet
   facet normal -0.422618261740713 0.906307787036644 0
      outer loop
         vertex 21.2439164100028 23.3206324701922 19.318
         vertex 21.2316534620398 23.3149141636455 17.8760287641164
         vertex 21.2316534620398 23.3149141636455 19.318
      endloop
   endfacet
   facet normal -0.707106781186548 0.707106781186548 0
      outer loop
         vertex 21.2316534620398 23.3149141636455 17.8760287641164
         vertex 21.2220858363545 23.3053465379602 17.8760287641164
         vertex 21.2316534620398 23.3149141636455 19.318
      endloop
   endfacet
   facet normal -0.707106781186548 0.707106781186548 0
      outer loop
         vertex 21.2316534620398 23.3149141636455 19.318
         vertex 21.2220858363545 23.3053465379602 17.8760287641164
         vertex 21.2220858363545 23.3053465379602 19.318
      endloop
   endfacet
   facet normal -0.906307787036742 0.422618261740502 0
      outer loop
         vertex 21.2220858363545 23.3053465379602 17.8760287641164
         vertex 21.2163675298078 23.2930835899972 17.8760287641164
         vertex 21.2220858363545 23.3053465379602 19.318
      endloop
   endfacet
   facet normal 0 0 1
      outer loop
         vertex 21.2916324701922 23.2729164100028 19.318
         vertex 21.289309751383 23.2994652074774 19.318
         vertex 21.2859141636455 23.2606534620398 19.318
      endloop
   endfacet
   facet normal 0 0 1
      outer loop
         vertex 21.2859141636455 23.2606534620398 19.318
         vertex 21.289309751383 23.2994652074774 19.318
         vertex 21.281548880195 23.310548880195 19.318
      endloop
   endfacet
   facet normal 0 0 1
      outer loop
         vertex 21.2859141636455 23.2606534620398 19.318
         vertex 21.281548880195 23.310548880195 19.318
         vertex 21.2763465379602 23.2510858363545 19.318
      endloop
   endfacet
   facet normal 0 0 1
      outer loop
         vertex 21.2763465379602 23.2510858363545 19.318
         vertex 21.281548880195 23.310548880195 19.318
         vertex 21.2704652074774 23.318309751383 19.318
      endloop
   endfacet
   facet normal 0 0 1
      outer loop
         vertex 21.2763465379602 23.2510858363545 19.318
         vertex 21.2704652074774 23.318309751383 19.318
         vertex 21.2640835899972 23.2453675298078 19.318
      endloop
   endfacet
   facet normal 0 0 1
      outer loop
         vertex 21.2640835899972 23.2453675298078 19.318
         vertex 21.2704652074774 23.318309751383 19.318
         vertex 21.2573955877375 23.3218117454377 19.318
      endloop
   endfacet
   facet normal 0 0 1
      outer loop
         vertex 21.2640835899972 23.2453675298078 19.318
         vertex 21.2573955877375 23.3218117454377 19.318
         vertex 21.2506044122626 23.2441882545623 19.318
      endloop
   endfacet
   facet normal 0 0 1
      outer loop
         vertex 21.2506044122626 23.2441882545623 19.318
         vertex 21.2573955877375 23.3218117454377 19.318
         vertex 21.2439164100028 23.3206324701922 19.318
      endloop
   endfacet
   facet normal 0 0 1
      outer loop
         vertex 21.2506044122626 23.2441882545623 19.318
         vertex 21.2439164100028 23.3206324701922 19.318
         vertex 21.2375347925226 23.2476902486171 19.318
      endloop
   endfacet
   facet normal 0 0 1
      outer loop
         vertex 21.2375347925226 23.2476902486171 19.318
         vertex 21.2439164100028 23.3206324701922 19.318
         vertex 21.2316534620398 23.3149141636455 19.318
      endloop
   endfacet
   facet normal 0 0 1
      outer loop
         vertex 21.2375347925226 23.2476902486171 19.318
         vertex 21.2316534620398 23.3149141636455 19.318
         vertex 21.226451119805 23.255451119805 19.318
      endloop
   endfacet
   facet normal 0 0 1
      outer loop
         vertex 21.226451119805 23.255451119805 19.318
         vertex 21.2316534620398 23.3149141636455 19.318
         vertex 21.2220858363545 23.3053465379602 19.318
      endloop
   endfacet
   facet normal 0 0 1
      outer loop
         vertex 21.226451119805 23.255451119805 19.318
         vertex 21.2220858363545 23.3053465379602 19.318
         vertex 21.2202596502686 23.26352 19.318
      endloop
   endfacet
   facet normal 0 0 1
      outer loop
         vertex 21.2202596502686 23.26352 19.318
         vertex 21.2220858363545 23.3053465379602 19.318
         vertex 21.2163675298078 23.2729164100028 19.318
      endloop
   endfacet
   facet normal 0 0 1
      outer loop
         vertex 21.2916324701922 23.2729164100028 19.318
         vertex 21.2928117454377 23.2863955877374 19.318
         vertex 21.289309751383 23.2994652074774 19.318
      endloop
   endfacet
   facet normal 0 0 1
      outer loop
         vertex 21.2220858363545 23.3053465379602 19.318
         vertex 21.2163675298078 23.2930835899972 19.318
         vertex 21.2163675298078 23.2729164100028 19.318
      endloop
   endfacet
   facet normal 0 0 1
      outer loop
         vertex 21.2163675298078 23.2729164100028 19.318
         vertex 21.2163675298078 23.2930835899972 19.318
         vertex 21.21504 23.283 19.318
      endloop
   endfacet
endsolid
