solid "<stl unit=MM>"
   facet normal 0 0 -1
      outer loop
         vertex 21.2151882545623 21.7796044122626 19.3760287641164
         vertex 21.2163675298078 21.7930835899972 19.3760287641164
         vertex 21.2186902486171 21.7665347925226 19.3760287641164
      endloop
   endfacet
   facet normal 0 0 -1
      outer loop
         vertex 21.2186902486171 21.7665347925226 19.3760287641164
         vertex 21.2163675298078 21.7930835899972 19.3760287641164
         vertex 21.2220858363545 21.8053465379602 19.3760287641164
      endloop
   endfacet
   facet normal 0 0 -1
      outer loop
         vertex 21.2186902486171 21.7665347925226 19.3760287641164
         vertex 21.2220858363545 21.8053465379602 19.3760287641164
         vertex 21.226451119805 21.755451119805 19.3760287641164
      endloop
   endfacet
   facet normal 0 0 -1
      outer loop
         vertex 21.226451119805 21.755451119805 19.3760287641164
         vertex 21.2220858363545 21.8053465379602 19.3760287641164
         vertex 21.2316534620398 21.8149141636455 19.3760287641164
      endloop
   endfacet
   facet normal 0 0 -1
      outer loop
         vertex 21.226451119805 21.755451119805 19.3760287641164
         vertex 21.2316534620398 21.8149141636455 19.3760287641164
         vertex 21.23452 21.7492596502686 19.3760287641164
      endloop
   endfacet
   facet normal 0 0 -1
      outer loop
         vertex 21.23452 21.7492596502686 19.3760287641164
         vertex 21.2316534620398 21.8149141636455 19.3760287641164
         vertex 21.2439164100028 21.7453675298078 19.3760287641164
      endloop
   endfacet
   facet normal 0 0 -1
      outer loop
         vertex 21.2316534620398 21.8149141636455 19.3760287641164
         vertex 21.2439164100028 21.8206324701922 19.3760287641164
         vertex 21.2439164100028 21.7453675298078 19.3760287641164
      endloop
   endfacet
   facet normal 0 0 -1
      outer loop
         vertex 21.2439164100028 21.7453675298078 19.3760287641164
         vertex 21.2439164100028 21.8206324701922 19.3760287641164
         vertex 21.254 21.74404 19.3760287641164
      endloop
   endfacet
   facet normal 0 0 -1
      outer loop
         vertex 21.2439164100028 21.8206324701922 19.3760287641164
         vertex 21.2573955877375 21.8218117454377 19.3760287641164
         vertex 21.254 21.74404 19.3760287641164
      endloop
   endfacet
   facet normal 0 0 -1
      outer loop
         vertex 21.254 21.74404 19.3760287641164
         vertex 21.2573955877375 21.8218117454377 19.3760287641164
         vertex 21.2640835899972 21.7453675298078 19.3760287641164
      endloop
   endfacet
   facet normal 0 0 -1
      outer loop
         vertex 21.2573955877375 21.8218117454377 19.3760287641164
         vertex 21.2704652074774 21.818309751383 19.3760287641164
         vertex 21.2640835899972 21.7453675298078 19.3760287641164
      endloop
   endfacet
   facet normal 0 0 -1
      outer loop
         vertex 21.2640835899972 21.7453675298078 19.3760287641164
         vertex 21.2704652074774 21.818309751383 19.3760287641164
         vertex 21.2763465379602 21.7510858363545 19.3760287641164
      endloop
   endfacet
   facet normal 0 0 -1
      outer loop
         vertex 21.2704652074774 21.818309751383 19.3760287641164
         vertex 21.281548880195 21.810548880195 19.3760287641164
         vertex 21.2763465379602 21.7510858363545 19.3760287641164
      endloop
   endfacet
   facet normal 0 0 -1
      outer loop
         vertex 21.2763465379602 21.7510858363545 19.3760287641164
         vertex 21.281548880195 21.810548880195 19.3760287641164
         vertex 21.2859141636455 21.7606534620398 19.3760287641164
      endloop
   endfacet
   facet normal 0 0 -1
      outer loop
         vertex 21.281548880195 21.810548880195 19.3760287641164
         vertex 21.289309751383 21.7994652074774 19.3760287641164
         vertex 21.2859141636455 21.7606534620398 19.3760287641164
      endloop
   endfacet
   facet normal 0 0 -1
      outer loop
         vertex 21.2859141636455 21.7606534620398 19.3760287641164
         vertex 21.289309751383 21.7994652074774 19.3760287641164
         vertex 21.2916324701922 21.7729164100028 19.3760287641164
      endloop
   endfacet
   facet normal 0 0 -1
      outer loop
         vertex 21.289309751383 21.7994652074774 19.3760287641164
         vertex 21.2928117454377 21.7863955877374 19.3760287641164
         vertex 21.2916324701922 21.7729164100028 19.3760287641164
      endloop
   endfacet
   facet normal 0.130526192220238 -0.991444861373786 0
      outer loop
         vertex 21.2640835899972 21.7453675298078 19.3760287641164
         vertex 21.2640835899972 21.7453675298078 20.818
         vertex 21.254 21.74404 19.3760287641164
      endloop
   endfacet
   facet normal 0.0871557386229991 -0.996194650944809 0.000307658952039549
      outer loop
         vertex 21.254 21.74404 19.3760287641164
         vertex 21.2640835899972 21.7453675298078 20.818
         vertex 21.2506044122626 21.7441882545623 20.818
      endloop
   endfacet
   facet normal -0.130526189466032 -0.991444840453168 -0.000205431911597279
      outer loop
         vertex 21.254 21.74404 19.3760287641164
         vertex 21.2506044122626 21.7441882545623 20.818
         vertex 21.2439164100028 21.7453675298078 19.3760287641164
      endloop
   endfacet
   facet normal -0.25881902329856 -0.965925744915676 0.000410472745952784
      outer loop
         vertex 21.2439164100028 21.7453675298078 19.3760287641164
         vertex 21.2506044122626 21.7441882545623 20.818
         vertex 21.2375347925226 21.7476902486171 20.818
      endloop
   endfacet
   facet normal -0.382683424289819 -0.923879513016469 -0.000205431911597936
      outer loop
         vertex 21.2439164100028 21.7453675298078 19.3760287641164
         vertex 21.2375347925226 21.7476902486171 20.818
         vertex 21.23452 21.7492596502686 19.3760287641164
      endloop
   endfacet
   facet normal -0.573576409207901 -0.819152005519207 0.000307658952045629
      outer loop
         vertex 21.23452 21.7492596502686 19.3760287641164
         vertex 21.2375347925226 21.7476902486171 20.818
         vertex 21.226451119805 21.755451119805 20.818
      endloop
   endfacet
   facet normal -0.608761429008842 -0.793353340291142 2.69885206105164E-14
      outer loop
         vertex 21.23452 21.7492596502686 19.3760287641164
         vertex 21.226451119805 21.755451119805 20.818
         vertex 21.226451119805 21.755451119805 19.3760287641164
      endloop
   endfacet
   facet normal -0.793353340288686 -0.608761429012042 2.69884041599966E-14
      outer loop
         vertex 21.226451119805 21.755451119805 19.3760287641164
         vertex 21.226451119805 21.755451119805 20.818
         vertex 21.2202596502686 21.76352 20.818
      endloop
   endfacet
   facet normal -0.819152005520846 -0.573576409205561 -0.000307658952040333
      outer loop
         vertex 21.226451119805 21.755451119805 19.3760287641164
         vertex 21.2202596502686 21.76352 20.818
         vertex 21.2186902486171 21.7665347925226 19.3760287641164
      endloop
   endfacet
   facet normal -0.923879513016469 -0.382683424289819 0.000205431911597015
      outer loop
         vertex 21.2186902486171 21.7665347925226 19.3760287641164
         vertex 21.2202596502686 21.76352 20.818
         vertex 21.2163675298078 21.7729164100028 20.818
      endloop
   endfacet
   facet normal -0.965925744915676 -0.25881902329856 -0.000410472745953406
      outer loop
         vertex 21.2186902486171 21.7665347925226 19.3760287641164
         vertex 21.2163675298078 21.7729164100028 20.818
         vertex 21.2151882545623 21.7796044122626 19.3760287641164
      endloop
   endfacet
   facet normal -0.991444840453174 -0.130526189465987 0.000205431911597174
      outer loop
         vertex 21.2151882545623 21.7796044122626 19.3760287641164
         vertex 21.2163675298078 21.7729164100028 20.818
         vertex 21.21504 21.783 20.818
      endloop
   endfacet
   facet normal -0.996194650944807 0.0871557386230214 -0.000307658952039601
      outer loop
         vertex 21.2151882545623 21.7796044122626 19.3760287641164
         vertex 21.21504 21.783 20.818
         vertex 21.2163675298078 21.7930835899972 19.3760287641164
      endloop
   endfacet
   facet normal -0.99144486137378 0.130526192220282 0
      outer loop
         vertex 21.2163675298078 21.7930835899972 19.3760287641164
         vertex 21.21504 21.783 20.818
         vertex 21.2163675298078 21.7930835899972 20.818
      endloop
   endfacet
   facet normal -0.906307787036742 0.422618261740502 0
      outer loop
         vertex 21.2163675298078 21.7930835899972 19.3760287641164
         vertex 21.2163675298078 21.7930835899972 20.818
         vertex 21.2220858363545 21.8053465379602 20.818
      endloop
   endfacet
   facet normal 0.422618261740713 -0.906307787036644 0
      outer loop
         vertex 21.2640835899972 21.7453675298078 19.3760287641164
         vertex 21.2763465379602 21.7510858363545 19.3760287641164
         vertex 21.2640835899972 21.7453675298078 20.818
      endloop
   endfacet
   facet normal 0.422618261740713 -0.906307787036644 0
      outer loop
         vertex 21.2640835899972 21.7453675298078 20.818
         vertex 21.2763465379602 21.7510858363545 19.3760287641164
         vertex 21.2763465379602 21.7510858363545 20.818
      endloop
   endfacet
   facet normal 0.707106781186548 -0.707106781186548 0
      outer loop
         vertex 21.2763465379602 21.7510858363545 19.3760287641164
         vertex 21.2859141636455 21.7606534620398 19.3760287641164
         vertex 21.2763465379602 21.7510858363545 20.818
      endloop
   endfacet
   facet normal 0.707106781186548 -0.707106781186548 0
      outer loop
         vertex 21.2763465379602 21.7510858363545 20.818
         vertex 21.2859141636455 21.7606534620398 19.3760287641164
         vertex 21.2859141636455 21.7606534620398 20.818
      endloop
   endfacet
   facet normal 0.906307787036742 -0.422618261740502 0
      outer loop
         vertex 21.2859141636455 21.7606534620398 19.3760287641164
         vertex 21.2916324701922 21.7729164100028 19.3760287641164
         vertex 21.2859141636455 21.7606534620398 20.818
      endloop
   endfacet
   facet normal 0.906307787036742 -0.422618261740502 0
      outer loop
         vertex 21.2859141636455 21.7606534620398 20.818
         vertex 21.2916324701922 21.7729164100028 19.3760287641164
         vertex 21.2916324701922 21.7729164100028 20.818
      endloop
   endfacet
   facet normal 0.996194698091729 -0.0871557427478427 0
      outer loop
         vertex 21.2916324701922 21.7729164100028 19.3760287641164
         vertex 21.2928117454377 21.7863955877374 19.3760287641164
         vertex 21.2916324701922 21.7729164100028 20.818
      endloop
   endfacet
   facet normal 0.996194698091729 -0.0871557427478427 0
      outer loop
         vertex 21.2916324701922 21.7729164100028 20.818
         vertex 21.2928117454377 21.7863955877374 19.3760287641164
         vertex 21.2928117454377 21.7863955877374 20.818
      endloop
   endfacet
   facet normal 0.965925826289075 0.258819045102497 0
      outer loop
         vertex 21.2928117454377 21.7863955877374 19.3760287641164
         vertex 21.289309751383 21.7994652074774 19.3760287641164
         vertex 21.2928117454377 21.7863955877374 20.818
      endloop
   endfacet
   facet normal 0.965925826289075 0.258819045102497 0
      outer loop
         vertex 21.2928117454377 21.7863955877374 20.818
         vertex 21.289309751383 21.7994652074774 19.3760287641164
         vertex 21.289309751383 21.7994652074774 20.818
      endloop
   endfacet
   facet normal 0.819152044288953 0.573576436351102 0
      outer loop
         vertex 21.289309751383 21.7994652074774 19.3760287641164
         vertex 21.281548880195 21.810548880195 19.3760287641164
         vertex 21.289309751383 21.7994652074774 20.818
      endloop
   endfacet
   facet normal 0.819152044288953 0.573576436351102 0
      outer loop
         vertex 21.289309751383 21.7994652074774 20.818
         vertex 21.281548880195 21.810548880195 19.3760287641164
         vertex 21.281548880195 21.810548880195 20.818
      endloop
   endfacet
   facet normal 0.57357643635105 0.819152044288989 0
      outer loop
         vertex 21.281548880195 21.810548880195 19.3760287641164
         vertex 21.2704652074774 21.818309751383 19.3760287641164
         vertex 21.281548880195 21.810548880195 20.818
      endloop
   endfacet
   facet normal 0.57357643635105 0.819152044288989 0
      outer loop
         vertex 21.281548880195 21.810548880195 20.818
         vertex 21.2704652074774 21.818309751383 19.3760287641164
         vertex 21.2704652074774 21.818309751383 20.818
      endloop
   endfacet
   facet normal 0.258819045102497 0.965925826289075 0
      outer loop
         vertex 21.2704652074774 21.818309751383 19.3760287641164
         vertex 21.2573955877375 21.8218117454377 19.3760287641164
         vertex 21.2704652074774 21.818309751383 20.818
      endloop
   endfacet
   facet normal 0.258819045102497 0.965925826289075 0
      outer loop
         vertex 21.2704652074774 21.818309751383 20.818
         vertex 21.2573955877375 21.8218117454377 19.3760287641164
         vertex 21.2573955877375 21.8218117454377 20.818
      endloop
   endfacet
   facet normal -0.0871557427478204 0.996194698091731 0
      outer loop
         vertex 21.2573955877375 21.8218117454377 19.3760287641164
         vertex 21.2439164100028 21.8206324701922 19.3760287641164
         vertex 21.2573955877375 21.8218117454377 20.818
      endloop
   endfacet
   facet normal -0.0871557427478204 0.996194698091731 0
      outer loop
         vertex 21.2573955877375 21.8218117454377 20.818
         vertex 21.2439164100028 21.8206324701922 19.3760287641164
         vertex 21.2439164100028 21.8206324701922 20.818
      endloop
   endfacet
   facet normal -0.422618261740713 0.906307787036644 0
      outer loop
         vertex 21.2439164100028 21.8206324701922 19.3760287641164
         vertex 21.2316534620398 21.8149141636455 19.3760287641164
         vertex 21.2439164100028 21.8206324701922 20.818
      endloop
   endfacet
   facet normal -0.422618261740713 0.906307787036644 0
      outer loop
         vertex 21.2439164100028 21.8206324701922 20.818
         vertex 21.2316534620398 21.8149141636455 19.3760287641164
         vertex 21.2316534620398 21.8149141636455 20.818
      endloop
   endfacet
   facet normal -0.707106781186548 0.707106781186548 0
      outer loop
         vertex 21.2316534620398 21.8149141636455 19.3760287641164
         vertex 21.2220858363545 21.8053465379602 19.3760287641164
         vertex 21.2316534620398 21.8149141636455 20.818
      endloop
   endfacet
   facet normal -0.707106781186548 0.707106781186548 0
      outer loop
         vertex 21.2316534620398 21.8149141636455 20.818
         vertex 21.2220858363545 21.8053465379602 19.3760287641164
         vertex 21.2220858363545 21.8053465379602 20.818
      endloop
   endfacet
   facet normal -0.906307787036742 0.422618261740502 0
      outer loop
         vertex 21.2220858363545 21.8053465379602 19.3760287641164
         vertex 21.2163675298078 21.7930835899972 19.3760287641164
         vertex 21.2220858363545 21.8053465379602 20.818
      endloop
   endfacet
   facet normal 0 0 1
      outer loop
         vertex 21.2916324701922 21.7729164100028 20.818
         vertex 21.289309751383 21.7994652074774 20.818
         vertex 21.2859141636455 21.7606534620398 20.818
      endloop
   endfacet
   facet normal 0 0 1
      outer loop
         vertex 21.2859141636455 21.7606534620398 20.818
         vertex 21.289309751383 21.7994652074774 20.818
         vertex 21.281548880195 21.810548880195 20.818
      endloop
   endfacet
   facet normal 0 0 1
      outer loop
         vertex 21.2859141636455 21.7606534620398 20.818
         vertex 21.281548880195 21.810548880195 20.818
         vertex 21.2763465379602 21.7510858363545 20.818
      endloop
   endfacet
   facet normal 0 0 1
      outer loop
         vertex 21.2763465379602 21.7510858363545 20.818
         vertex 21.281548880195 21.810548880195 20.818
         vertex 21.2704652074774 21.818309751383 20.818
      endloop
   endfacet
   facet normal 0 0 1
      outer loop
         vertex 21.2763465379602 21.7510858363545 20.818
         vertex 21.2704652074774 21.818309751383 20.818
         vertex 21.2640835899972 21.7453675298078 20.818
      endloop
   endfacet
   facet normal 0 0 1
      outer loop
         vertex 21.2640835899972 21.7453675298078 20.818
         vertex 21.2704652074774 21.818309751383 20.818
         vertex 21.2573955877375 21.8218117454377 20.818
      endloop
   endfacet
   facet normal 0 0 1
      outer loop
         vertex 21.2640835899972 21.7453675298078 20.818
         vertex 21.2573955877375 21.8218117454377 20.818
         vertex 21.2506044122626 21.7441882545623 20.818
      endloop
   endfacet
   facet normal 0 0 1
      outer loop
         vertex 21.2506044122626 21.7441882545623 20.818
         vertex 21.2573955877375 21.8218117454377 20.818
         vertex 21.2439164100028 21.8206324701922 20.818
      endloop
   endfacet
   facet normal 0 0 1
      outer loop
         vertex 21.2506044122626 21.7441882545623 20.818
         vertex 21.2439164100028 21.8206324701922 20.818
         vertex 21.2375347925226 21.7476902486171 20.818
      endloop
   endfacet
   facet normal 0 0 1
      outer loop
         vertex 21.2375347925226 21.7476902486171 20.818
         vertex 21.2439164100028 21.8206324701922 20.818
         vertex 21.2316534620398 21.8149141636455 20.818
      endloop
   endfacet
   facet normal 0 0 1
      outer loop
         vertex 21.2375347925226 21.7476902486171 20.818
         vertex 21.2316534620398 21.8149141636455 20.818
         vertex 21.226451119805 21.755451119805 20.818
      endloop
   endfacet
   facet normal 0 0 1
      outer loop
         vertex 21.226451119805 21.755451119805 20.818
         vertex 21.2316534620398 21.8149141636455 20.818
         vertex 21.2220858363545 21.8053465379602 20.818
      endloop
   endfacet
   facet normal 0 0 1
      outer loop
         vertex 21.226451119805 21.755451119805 20.818
         vertex 21.2220858363545 21.8053465379602 20.818
         vertex 21.2202596502686 21.76352 20.818
      endloop
   endfacet
   facet normal 0 0 1
      outer loop
         vertex 21.2202596502686 21.76352 20.818
         vertex 21.2220858363545 21.8053465379602 20.818
         vertex 21.2163675298078 21.7729164100028 20.818
      endloop
   endfacet
   facet normal 0 0 1
      outer loop
         vertex 21.2916324701922 21.7729164100028 20.818
         vertex 21.2928117454377 21.7863955877374 20.818
         vertex 21.289309751383 21.7994652074774 20.818
      endloop
   endfacet
   facet normal 0 0 1
      outer loop
         vertex 21.2220858363545 21.8053465379602 20.818
         vertex 21.2163675298078 21.7930835899972 20.818
         vertex 21.2163675298078 21.7729164100028 20.818
      endloop
   endfacet
   facet normal 0 0 1
      outer loop
         vertex 21.2163675298078 21.7729164100028 20.818
         vertex 21.2163675298078 21.7930835899972 20.818
         vertex 21.21504 21.783 20.818
      endloop
   endfacet
endsolid
solid "<stl unit=MM>"
   facet normal 0 0 -1
      outer loop
         vertex 21.2151882545623 22.7796044122626 19.3760287641164
         vertex 21.2163675298078 22.7930835899972 19.3760287641164
         vertex 21.2186902486171 22.7665347925226 19.3760287641164
      endloop
   endfacet
   facet normal 0 0 -1
      outer loop
         vertex 21.2186902486171 22.7665347925226 19.3760287641164
         vertex 21.2163675298078 22.7930835899972 19.3760287641164
         vertex 21.2220858363545 22.8053465379602 19.3760287641164
      endloop
   endfacet
   facet normal 0 0 -1
      outer loop
         vertex 21.2186902486171 22.7665347925226 19.3760287641164
         vertex 21.2220858363545 22.8053465379602 19.3760287641164
         vertex 21.226451119805 22.755451119805 19.3760287641164
      endloop
   endfacet
   facet normal 0 0 -1
      outer loop
         vertex 21.226451119805 22.755451119805 19.3760287641164
         vertex 21.2220858363545 22.8053465379602 19.3760287641164
         vertex 21.2316534620398 22.8149141636455 19.3760287641164
      endloop
   endfacet
   facet normal 0 0 -1
      outer loop
         vertex 21.226451119805 22.755451119805 19.3760287641164
         vertex 21.2316534620398 22.8149141636455 19.3760287641164
         vertex 21.23452 22.7492596502686 19.3760287641164
      endloop
   endfacet
   facet normal 0 0 -1
      outer loop
         vertex 21.23452 22.7492596502686 19.3760287641164
         vertex 21.2316534620398 22.8149141636455 19.3760287641164
         vertex 21.2439164100028 22.7453675298078 19.3760287641164
      endloop
   endfacet
   facet normal 0 0 -1
      outer loop
         vertex 21.2316534620398 22.8149141636455 19.3760287641164
         vertex 21.2439164100028 22.8206324701922 19.3760287641164
         vertex 21.2439164100028 22.7453675298078 19.3760287641164
      endloop
   endfacet
   facet normal 0 0 -1
      outer loop
         vertex 21.2439164100028 22.7453675298078 19.3760287641164
         vertex 21.2439164100028 22.8206324701922 19.3760287641164
         vertex 21.254 22.74404 19.3760287641164
      endloop
   endfacet
   facet normal 0 0 -1
      outer loop
         vertex 21.2439164100028 22.8206324701922 19.3760287641164
         vertex 21.2573955877375 22.8218117454377 19.3760287641164
         vertex 21.254 22.74404 19.3760287641164
      endloop
   endfacet
   facet normal 0 0 -1
      outer loop
         vertex 21.254 22.74404 19.3760287641164
         vertex 21.2573955877375 22.8218117454377 19.3760287641164
         vertex 21.2640835899972 22.7453675298078 19.3760287641164
      endloop
   endfacet
   facet normal 0 0 -1
      outer loop
         vertex 21.2573955877375 22.8218117454377 19.3760287641164
         vertex 21.2704652074774 22.818309751383 19.3760287641164
         vertex 21.2640835899972 22.7453675298078 19.3760287641164
      endloop
   endfacet
   facet normal 0 0 -1
      outer loop
         vertex 21.2640835899972 22.7453675298078 19.3760287641164
         vertex 21.2704652074774 22.818309751383 19.3760287641164
         vertex 21.2763465379602 22.7510858363545 19.3760287641164
      endloop
   endfacet
   facet normal 0 0 -1
      outer loop
         vertex 21.2704652074774 22.818309751383 19.3760287641164
         vertex 21.281548880195 22.810548880195 19.3760287641164
         vertex 21.2763465379602 22.7510858363545 19.3760287641164
      endloop
   endfacet
   facet normal 0 0 -1
      outer loop
         vertex 21.2763465379602 22.7510858363545 19.3760287641164
         vertex 21.281548880195 22.810548880195 19.3760287641164
         vertex 21.2859141636455 22.7606534620398 19.3760287641164
      endloop
   endfacet
   facet normal 0 0 -1
      outer loop
         vertex 21.281548880195 22.810548880195 19.3760287641164
         vertex 21.289309751383 22.7994652074774 19.3760287641164
         vertex 21.2859141636455 22.7606534620398 19.3760287641164
      endloop
   endfacet
   facet normal 0 0 -1
      outer loop
         vertex 21.2859141636455 22.7606534620398 19.3760287641164
         vertex 21.289309751383 22.7994652074774 19.3760287641164
         vertex 21.2916324701922 22.7729164100028 19.3760287641164
      endloop
   endfacet
   facet normal 0 0 -1
      outer loop
         vertex 21.289309751383 22.7994652074774 19.3760287641164
         vertex 21.2928117454377 22.7863955877374 19.3760287641164
         vertex 21.2916324701922 22.7729164100028 19.3760287641164
      endloop
   endfacet
   facet normal 0.130526192220238 -0.991444861373786 0
      outer loop
         vertex 21.2640835899972 22.7453675298078 19.3760287641164
         vertex 21.2640835899972 22.7453675298078 20.818
         vertex 21.254 22.74404 19.3760287641164
      endloop
   endfacet
   facet normal 0.0871557386229991 -0.996194650944809 0.000307658952039549
      outer loop
         vertex 21.254 22.74404 19.3760287641164
         vertex 21.2640835899972 22.7453675298078 20.818
         vertex 21.2506044122626 22.7441882545623 20.818
      endloop
   endfacet
   facet normal -0.130526189466032 -0.991444840453168 -0.000205431911597279
      outer loop
         vertex 21.254 22.74404 19.3760287641164
         vertex 21.2506044122626 22.7441882545623 20.818
         vertex 21.2439164100028 22.7453675298078 19.3760287641164
      endloop
   endfacet
   facet normal -0.25881902329856 -0.965925744915676 0.000410472745952784
      outer loop
         vertex 21.2439164100028 22.7453675298078 19.3760287641164
         vertex 21.2506044122626 22.7441882545623 20.818
         vertex 21.2375347925226 22.7476902486171 20.818
      endloop
   endfacet
   facet normal -0.382683424289819 -0.923879513016469 -0.000205431911597936
      outer loop
         vertex 21.2439164100028 22.7453675298078 19.3760287641164
         vertex 21.2375347925226 22.7476902486171 20.818
         vertex 21.23452 22.7492596502686 19.3760287641164
      endloop
   endfacet
   facet normal -0.573576409207901 -0.819152005519207 0.000307658952045629
      outer loop
         vertex 21.23452 22.7492596502686 19.3760287641164
         vertex 21.2375347925226 22.7476902486171 20.818
         vertex 21.226451119805 22.755451119805 20.818
      endloop
   endfacet
   facet normal -0.608761429008842 -0.793353340291142 2.69885206105164E-14
      outer loop
         vertex 21.23452 22.7492596502686 19.3760287641164
         vertex 21.226451119805 22.755451119805 20.818
         vertex 21.226451119805 22.755451119805 19.3760287641164
      endloop
   endfacet
   facet normal -0.793353340288686 -0.608761429012042 2.69884041599966E-14
      outer loop
         vertex 21.226451119805 22.755451119805 19.3760287641164
         vertex 21.226451119805 22.755451119805 20.818
         vertex 21.2202596502686 22.76352 20.818
      endloop
   endfacet
   facet normal -0.819152005520846 -0.573576409205561 -0.000307658952040333
      outer loop
         vertex 21.226451119805 22.755451119805 19.3760287641164
         vertex 21.2202596502686 22.76352 20.818
         vertex 21.2186902486171 22.7665347925226 19.3760287641164
      endloop
   endfacet
   facet normal -0.923879513016469 -0.382683424289819 0.000205431911597015
      outer loop
         vertex 21.2186902486171 22.7665347925226 19.3760287641164
         vertex 21.2202596502686 22.76352 20.818
         vertex 21.2163675298078 22.7729164100028 20.818
      endloop
   endfacet
   facet normal -0.965925744915676 -0.25881902329856 -0.000410472745953406
      outer loop
         vertex 21.2186902486171 22.7665347925226 19.3760287641164
         vertex 21.2163675298078 22.7729164100028 20.818
         vertex 21.2151882545623 22.7796044122626 19.3760287641164
      endloop
   endfacet
   facet normal -0.991444840453174 -0.130526189465987 0.000205431911597174
      outer loop
         vertex 21.2151882545623 22.7796044122626 19.3760287641164
         vertex 21.2163675298078 22.7729164100028 20.818
         vertex 21.21504 22.783 20.818
      endloop
   endfacet
   facet normal -0.996194650944807 0.0871557386230214 -0.000307658952039601
      outer loop
         vertex 21.2151882545623 22.7796044122626 19.3760287641164
         vertex 21.21504 22.783 20.818
         vertex 21.2163675298078 22.7930835899972 19.3760287641164
      endloop
   endfacet
   facet normal -0.99144486137378 0.130526192220282 0
      outer loop
         vertex 21.2163675298078 22.7930835899972 19.3760287641164
         vertex 21.21504 22.783 20.818
         vertex 21.2163675298078 22.7930835899972 20.818
      endloop
   endfacet
   facet normal -0.906307787036742 0.422618261740502 0
      outer loop
         vertex 21.2163675298078 22.7930835899972 19.3760287641164
         vertex 21.2163675298078 22.7930835899972 20.818
         vertex 21.2220858363545 22.8053465379602 20.818
      endloop
   endfacet
   facet normal 0.422618261740713 -0.906307787036644 0
      outer loop
         vertex 21.2640835899972 22.7453675298078 19.3760287641164
         vertex 21.2763465379602 22.7510858363545 19.3760287641164
         vertex 21.2640835899972 22.7453675298078 20.818
      endloop
   endfacet
   facet normal 0.422618261740713 -0.906307787036644 0
      outer loop
         vertex 21.2640835899972 22.7453675298078 20.818
         vertex 21.2763465379602 22.7510858363545 19.3760287641164
         vertex 21.2763465379602 22.7510858363545 20.818
      endloop
   endfacet
   facet normal 0.707106781186548 -0.707106781186548 0
      outer loop
         vertex 21.2763465379602 22.7510858363545 19.3760287641164
         vertex 21.2859141636455 22.7606534620398 19.3760287641164
         vertex 21.2763465379602 22.7510858363545 20.818
      endloop
   endfacet
   facet normal 0.707106781186548 -0.707106781186548 0
      outer loop
         vertex 21.2763465379602 22.7510858363545 20.818
         vertex 21.2859141636455 22.7606534620398 19.3760287641164
         vertex 21.2859141636455 22.7606534620398 20.818
      endloop
   endfacet
   facet normal 0.906307787036742 -0.422618261740502 0
      outer loop
         vertex 21.2859141636455 22.7606534620398 19.3760287641164
         vertex 21.2916324701922 22.7729164100028 19.3760287641164
         vertex 21.2859141636455 22.7606534620398 20.818
      endloop
   endfacet
   facet normal 0.906307787036742 -0.422618261740502 0
      outer loop
         vertex 21.2859141636455 22.7606534620398 20.818
         vertex 21.2916324701922 22.7729164100028 19.3760287641164
         vertex 21.2916324701922 22.7729164100028 20.818
      endloop
   endfacet
   facet normal 0.996194698091729 -0.0871557427478427 0
      outer loop
         vertex 21.2916324701922 22.7729164100028 19.3760287641164
         vertex 21.2928117454377 22.7863955877374 19.3760287641164
         vertex 21.2916324701922 22.7729164100028 20.818
      endloop
   endfacet
   facet normal 0.996194698091729 -0.0871557427478427 0
      outer loop
         vertex 21.2916324701922 22.7729164100028 20.818
         vertex 21.2928117454377 22.7863955877374 19.3760287641164
         vertex 21.2928117454377 22.7863955877374 20.818
      endloop
   endfacet
   facet normal 0.965925826289075 0.258819045102497 0
      outer loop
         vertex 21.2928117454377 22.7863955877374 19.3760287641164
         vertex 21.289309751383 22.7994652074774 19.3760287641164
         vertex 21.2928117454377 22.7863955877374 20.818
      endloop
   endfacet
   facet normal 0.965925826289075 0.258819045102497 0
      outer loop
         vertex 21.2928117454377 22.7863955877374 20.818
         vertex 21.289309751383 22.7994652074774 19.3760287641164
         vertex 21.289309751383 22.7994652074774 20.818
      endloop
   endfacet
   facet normal 0.819152044288953 0.573576436351102 0
      outer loop
         vertex 21.289309751383 22.7994652074774 19.3760287641164
         vertex 21.281548880195 22.810548880195 19.3760287641164
         vertex 21.289309751383 22.7994652074774 20.818
      endloop
   endfacet
   facet normal 0.819152044288953 0.573576436351102 0
      outer loop
         vertex 21.289309751383 22.7994652074774 20.818
         vertex 21.281548880195 22.810548880195 19.3760287641164
         vertex 21.281548880195 22.810548880195 20.818
      endloop
   endfacet
   facet normal 0.57357643635105 0.819152044288989 0
      outer loop
         vertex 21.281548880195 22.810548880195 19.3760287641164
         vertex 21.2704652074774 22.818309751383 19.3760287641164
         vertex 21.281548880195 22.810548880195 20.818
      endloop
   endfacet
   facet normal 0.57357643635105 0.819152044288989 0
      outer loop
         vertex 21.281548880195 22.810548880195 20.818
         vertex 21.2704652074774 22.818309751383 19.3760287641164
         vertex 21.2704652074774 22.818309751383 20.818
      endloop
   endfacet
   facet normal 0.258819045102497 0.965925826289075 0
      outer loop
         vertex 21.2704652074774 22.818309751383 19.3760287641164
         vertex 21.2573955877375 22.8218117454377 19.3760287641164
         vertex 21.2704652074774 22.818309751383 20.818
      endloop
   endfacet
   facet normal 0.258819045102497 0.965925826289075 0
      outer loop
         vertex 21.2704652074774 22.818309751383 20.818
         vertex 21.2573955877375 22.8218117454377 19.3760287641164
         vertex 21.2573955877375 22.8218117454377 20.818
      endloop
   endfacet
   facet normal -0.0871557427478204 0.996194698091731 0
      outer loop
         vertex 21.2573955877375 22.8218117454377 19.3760287641164
         vertex 21.2439164100028 22.8206324701922 19.3760287641164
         vertex 21.2573955877375 22.8218117454377 20.818
      endloop
   endfacet
   facet normal -0.0871557427478204 0.996194698091731 0
      outer loop
         vertex 21.2573955877375 22.8218117454377 20.818
         vertex 21.2439164100028 22.8206324701922 19.3760287641164
         vertex 21.2439164100028 22.8206324701922 20.818
      endloop
   endfacet
   facet normal -0.422618261740713 0.906307787036644 0
      outer loop
         vertex 21.2439164100028 22.8206324701922 19.3760287641164
         vertex 21.2316534620398 22.8149141636455 19.3760287641164
         vertex 21.2439164100028 22.8206324701922 20.818
      endloop
   endfacet
   facet normal -0.422618261740713 0.906307787036644 0
      outer loop
         vertex 21.2439164100028 22.8206324701922 20.818
         vertex 21.2316534620398 22.8149141636455 19.3760287641164
         vertex 21.2316534620398 22.8149141636455 20.818
      endloop
   endfacet
   facet normal -0.707106781186548 0.707106781186548 0
      outer loop
         vertex 21.2316534620398 22.8149141636455 19.3760287641164
         vertex 21.2220858363545 22.8053465379602 19.3760287641164
         vertex 21.2316534620398 22.8149141636455 20.818
      endloop
   endfacet
   facet normal -0.707106781186548 0.707106781186548 0
      outer loop
         vertex 21.2316534620398 22.8149141636455 20.818
         vertex 21.2220858363545 22.8053465379602 19.3760287641164
         vertex 21.2220858363545 22.8053465379602 20.818
      endloop
   endfacet
   facet normal -0.906307787036742 0.422618261740502 0
      outer loop
         vertex 21.2220858363545 22.8053465379602 19.3760287641164
         vertex 21.2163675298078 22.7930835899972 19.3760287641164
         vertex 21.2220858363545 22.8053465379602 20.818
      endloop
   endfacet
   facet normal 0 0 1
      outer loop
         vertex 21.2916324701922 22.7729164100028 20.818
         vertex 21.289309751383 22.7994652074774 20.818
         vertex 21.2859141636455 22.7606534620398 20.818
      endloop
   endfacet
   facet normal 0 0 1
      outer loop
         vertex 21.2859141636455 22.7606534620398 20.818
         vertex 21.289309751383 22.7994652074774 20.818
         vertex 21.281548880195 22.810548880195 20.818
      endloop
   endfacet
   facet normal 0 0 1
      outer loop
         vertex 21.2859141636455 22.7606534620398 20.818
         vertex 21.281548880195 22.810548880195 20.818
         vertex 21.2763465379602 22.7510858363545 20.818
      endloop
   endfacet
   facet normal 0 0 1
      outer loop
         vertex 21.2763465379602 22.7510858363545 20.818
         vertex 21.281548880195 22.810548880195 20.818
         vertex 21.2704652074774 22.818309751383 20.818
      endloop
   endfacet
   facet normal 0 0 1
      outer loop
         vertex 21.2763465379602 22.7510858363545 20.818
         vertex 21.2704652074774 22.818309751383 20.818
         vertex 21.2640835899972 22.7453675298078 20.818
      endloop
   endfacet
   facet normal 0 0 1
      outer loop
         vertex 21.2640835899972 22.7453675298078 20.818
         vertex 21.2704652074774 22.818309751383 20.818
         vertex 21.2573955877375 22.8218117454377 20.818
      endloop
   endfacet
   facet normal 0 0 1
      outer loop
         vertex 21.2640835899972 22.7453675298078 20.818
         vertex 21.2573955877375 22.8218117454377 20.818
         vertex 21.2506044122626 22.7441882545623 20.818
      endloop
   endfacet
   facet normal 0 0 1
      outer loop
         vertex 21.2506044122626 22.7441882545623 20.818
         vertex 21.2573955877375 22.8218117454377 20.818
         vertex 21.2439164100028 22.8206324701922 20.818
      endloop
   endfacet
   facet normal 0 0 1
      outer loop
         vertex 21.2506044122626 22.7441882545623 20.818
         vertex 21.2439164100028 22.8206324701922 20.818
         vertex 21.2375347925226 22.7476902486171 20.818
      endloop
   endfacet
   facet normal 0 0 1
      outer loop
         vertex 21.2375347925226 22.7476902486171 20.818
         vertex 21.2439164100028 22.8206324701922 20.818
         vertex 21.2316534620398 22.8149141636455 20.818
      endloop
   endfacet
   facet normal 0 0 1
      outer loop
         vertex 21.2375347925226 22.7476902486171 20.818
         vertex 21.2316534620398 22.8149141636455 20.818
         vertex 21.226451119805 22.755451119805 20.818
      endloop
   endfacet
   facet normal 0 0 1
      outer loop
         vertex 21.226451119805 22.755451119805 20.818
         vertex 21.2316534620398 22.8149141636455 20.818
         vertex 21.2220858363545 22.8053465379602 20.818
      endloop
   endfacet
   facet normal 0 0 1
      outer loop
         vertex 21.226451119805 22.755451119805 20.818
         vertex 21.2220858363545 22.8053465379602 20.818
         vertex 21.2202596502686 22.76352 20.818
      endloop
   endfacet
   facet normal 0 0 1
      outer loop
         vertex 21.2202596502686 22.76352 20.818
         vertex 21.2220858363545 22.8053465379602 20.818
         vertex 21.2163675298078 22.7729164100028 20.818
      endloop
   endfacet
   facet normal 0 0 1
      outer loop
         vertex 21.2916324701922 22.7729164100028 20.818
         vertex 21.2928117454377 22.7863955877374 20.818
         vertex 21.289309751383 22.7994652074774 20.818
      endloop
   endfacet
   facet normal 0 0 1
      outer loop
         vertex 21.2220858363545 22.8053465379602 20.818
         vertex 21.2163675298078 22.7930835899972 20.818
         vertex 21.2163675298078 22.7729164100028 20.818
      endloop
   endfacet
   facet normal 0 0 1
      outer loop
         vertex 21.2163675298078 22.7729164100028 20.818
         vertex 21.2163675298078 22.7930835899972 20.818
         vertex 21.21504 22.783 20.818
      endloop
   endfacet
endsolid
