solid "<stl unit=MM>"
   facet normal 0 0 -1
      outer loop
         vertex 21.2152276030489 20.7791812522128 21.5970143820582
         vertex 21.2162075823755 20.792466507809 21.5970143820582
         vertex 21.2187805771399 20.76634245356 21.5970143820582
      endloop
   endfacet
   facet normal 0 0 -1
      outer loop
         vertex 21.2187805771399 20.76634245356 21.5970143820582
         vertex 21.2162075823755 20.792466507809 21.5970143820582
         vertex 21.2216059439047 20.8046450162784 21.5970143820582
      endloop
   endfacet
   facet normal 0 0 -1
      outer loop
         vertex 21.2187805771399 20.76634245356 21.5970143820582
         vertex 21.2216059439047 20.8046450162784 21.5970143820582
         vertex 21.226451119805 20.755451119805 21.5970143820582
      endloop
   endfacet
   facet normal 0 0 -1
      outer loop
         vertex 21.226451119805 20.755451119805 21.5970143820582
         vertex 21.2216059439047 20.8046450162784 21.5970143820582
         vertex 21.230791555097 20.8142929654265 21.5970143820582
      endloop
   endfacet
   facet normal 0 0 -1
      outer loop
         vertex 21.226451119805 20.755451119805 21.5970143820582
         vertex 21.230791555097 20.8142929654265 21.5970143820582
         vertex 21.2331564927292 20.7500845050979 21.5970143820582
      endloop
   endfacet
   facet normal 0 0 -1
      outer loop
         vertex 21.2331564927292 20.7500845050979 21.5970143820582
         vertex 21.230791555097 20.8142929654265 21.5970143820582
         vertex 21.2408747713118 20.7463174432205 21.5970143820582
      endloop
   endfacet
   facet normal 0 0 -1
      outer loop
         vertex 21.230791555097 20.8142929654265 21.5970143820582
         vertex 21.2426905089742 20.8202823954801 21.5970143820582
         vertex 21.2408747713118 20.7463174432205 21.5970143820582
      endloop
   endfacet
   facet normal 0 0 -1
      outer loop
         vertex 21.2408747713118 20.7463174432205 21.5970143820582
         vertex 21.2426905089742 20.8202823954801 21.5970143820582
         vertex 21.2492308800942 20.744332997332 21.5970143820582
      endloop
   endfacet
   facet normal 0 0 -1
      outer loop
         vertex 21.2426905089742 20.8202823954801 21.5970143820582
         vertex 21.2559116765918 20.8219130709738 21.5970143820582
         vertex 21.2492308800942 20.744332997332 21.5970143820582
      endloop
   endfacet
   facet normal 0 0 -1
      outer loop
         vertex 21.2492308800942 20.744332997332 21.5970143820582
         vertex 21.2559116765918 20.8219130709738 21.5970143820582
         vertex 21.2578187477872 20.7442276030489 21.5970143820582
      endloop
   endfacet
   facet normal 0 0 -1
      outer loop
         vertex 21.2578187477872 20.7442276030489 21.5970143820582
         vertex 21.2559116765918 20.8219130709738 21.5970143820582
         vertex 21.2662210406059 20.7460063820841 21.5970143820582
      endloop
   endfacet
   facet normal 0 0 -1
      outer loop
         vertex 21.2662210406059 20.7460063820841 21.5970143820582
         vertex 21.2559116765918 20.8219130709738 21.5970143820582
         vertex 21.2689093465249 20.8189943465866 21.5970143820582
      endloop
   endfacet
   facet normal 0 0 -1
      outer loop
         vertex 21.2662210406059 20.7460063820841 21.5970143820582
         vertex 21.2689093465249 20.8189943465866 21.5970143820582
         vertex 21.2740294429138 20.7495828933544 21.5970143820582
      endloop
   endfacet
   facet normal 0 0 -1
      outer loop
         vertex 21.2740294429138 20.7495828933544 21.5970143820582
         vertex 21.2689093465249 20.8189943465866 21.5970143820582
         vertex 21.2764334871376 20.8148531043204 21.5970143820582
      endloop
   endfacet
   facet normal 0 0 -1
      outer loop
         vertex 21.2740294429138 20.7495828933544 21.5970143820582
         vertex 21.2764334871376 20.8148531043204 21.5970143820582
         vertex 21.280864499623 20.7547833336482 21.5970143820582
      endloop
   endfacet
   facet normal 0 0 -1
      outer loop
         vertex 21.280864499623 20.7547833336482 21.5970143820582
         vertex 21.2764334871376 20.8148531043204 21.5970143820582
         vertex 21.2828674558438 20.8091639368808 21.5970143820582
      endloop
   endfacet
   facet normal 0 0 -1
      outer loop
         vertex 21.280864499623 20.7547833336482 21.5970143820582
         vertex 21.2828674558438 20.8091639368808 21.5970143820582
         vertex 21.2863940560953 20.7613549837216 21.5970143820582
      endloop
   endfacet
   facet normal 0 0 -1
      outer loop
         vertex 21.2863940560953 20.7613549837216 21.5970143820582
         vertex 21.2828674558438 20.8091639368808 21.5970143820582
         vertex 21.2878985891736 20.8022033135693 21.5970143820582
      endloop
   endfacet
   facet normal 0 0 -1
      outer loop
         vertex 21.2863940560953 20.7613549837216 21.5970143820582
         vertex 21.2878985891736 20.8022033135693 21.5970143820582
         vertex 21.2903493994426 20.7689784893766 21.5970143820582
      endloop
   endfacet
   facet normal 0 0 -1
      outer loop
         vertex 21.2903493994426 20.7689784893766 21.5970143820582
         vertex 21.2878985891736 20.8022033135693 21.5970143820582
         vertex 21.2912823954801 20.7943094910258 21.5970143820582
      endloop
   endfacet
   facet normal 0 0 -1
      outer loop
         vertex 21.2903493994426 20.7689784893766 21.5970143820582
         vertex 21.2912823954801 20.7943094910258 21.5970143820582
         vertex 21.2925383168282 20.7772833807152 21.5970143820582
      endloop
   endfacet
   facet normal 0 0 -1
      outer loop
         vertex 21.2925383168282 20.7772833807152 21.5970143820582
         vertex 21.2912823954801 20.7943094910258 21.5970143820582
         vertex 21.2928544361922 20.7858660753979 21.5970143820582
      endloop
   endfacet
   facet normal -0.634393284167809 -0.77301045335932 5.11276117721609E-14
      outer loop
         vertex 21.2323549837216 20.7506059439047 22.318
         vertex 21.226451119805 20.755451119805 22.318
         vertex 21.226451119805 20.755451119805 21.5970143820582
      endloop
   endfacet
   facet normal -0.773010453359098 -0.63439328416808 5.04606211165175E-14
      outer loop
         vertex 21.226451119805 20.755451119805 21.5970143820582
         vertex 21.226451119805 20.755451119805 22.318
         vertex 21.2216059439047 20.7613549837216 22.318
      endloop
   endfacet
   facet normal -0.817584564901932 -0.575808016580665 -0.000779278870976988
      outer loop
         vertex 21.226451119805 20.755451119805 21.5970143820582
         vertex 21.2216059439047 20.7613549837216 22.318
         vertex 21.2187805771399 20.76634245356 21.5970143820582
      endloop
   endfacet
   facet normal -0.881921247561538 -0.471396727852693 0.000195113489674715
      outer loop
         vertex 21.2187805771399 20.76634245356 21.5970143820582
         vertex 21.2216059439047 20.7613549837216 22.318
         vertex 21.2180056534134 20.7680906534751 22.318
      endloop
   endfacet
   facet normal -0.956940285297311 -0.290284661955389 -0.000324666823805848
      outer loop
         vertex 21.2187805771399 20.76634245356 21.5970143820582
         vertex 21.2180056534134 20.7680906534751 22.318
         vertex 21.2157886054755 20.7753992810543 22.318
      endloop
   endfacet
   facet normal -0.963775862737325 -0.266712701281379 -0.000649137977897646
      outer loop
         vertex 21.2187805771399 20.76634245356 21.5970143820582
         vertex 21.2157886054755 20.7753992810543 22.318
         vertex 21.2152276030489 20.7791812522128 21.5970143820582
      endloop
   endfacet
   facet normal -0.995184692982246 -0.0980171370114788 0.000260203584968261
      outer loop
         vertex 21.2152276030489 20.7791812522128 21.5970143820582
         vertex 21.2157886054755 20.7753992810543 22.318
         vertex 21.21504 20.783 22.318
      endloop
   endfacet
   facet normal -0.997290246559477 0.0735645481004497 -0.000649137977896596
      outer loop
         vertex 21.2152276030489 20.7791812522128 21.5970143820582
         vertex 21.21504 20.783 22.318
         vertex 21.2162075823755 20.792466507809 21.5970143820582
      endloop
   endfacet
   facet normal -0.995184674221699 0.0980171351637262 -0.000324666823804175
      outer loop
         vertex 21.2162075823755 20.792466507809 21.5970143820582
         vertex 21.21504 20.783 22.318
         vertex 21.2157886054755 20.7906007189458 22.318
      endloop
   endfacet
   facet normal -0.956940317517107 0.290284671729295 0.000195113489680409
      outer loop
         vertex 21.2162075823755 20.792466507809 21.5970143820582
         vertex 21.2157886054755 20.7906007189458 22.318
         vertex 21.2180056534134 20.7979093465249 22.318
      endloop
   endfacet
   facet normal -0.914209478114837 0.40524119095847 -0.000779278870964551
      outer loop
         vertex 21.2162075823755 20.792466507809 21.5970143820582
         vertex 21.2180056534134 20.7979093465249 22.318
         vertex 21.2216059439047 20.8046450162784 21.5970143820582
      endloop
   endfacet
   facet normal -0.881921264348501 0.471396736825724 -1.97548055782588E-15
      outer loop
         vertex 21.2216059439047 20.8046450162784 21.5970143820582
         vertex 21.2180056534134 20.7979093465249 22.318
         vertex 21.2216059439047 20.8046450162784 22.318
      endloop
   endfacet
   facet normal -0.773010453362788 0.634393284163584 -6.67038153326159E-16
      outer loop
         vertex 21.2216059439047 20.8046450162784 21.5970143820582
         vertex 21.2216059439047 20.8046450162784 22.318
         vertex 21.226451119805 20.810548880195 22.318
      endloop
   endfacet
   facet normal -0.724246863042787 0.689540335366339 -0.000779278870964627
      outer loop
         vertex 21.2216059439047 20.8046450162784 21.5970143820582
         vertex 21.226451119805 20.810548880195 22.318
         vertex 21.230791555097 20.8142929654265 21.5970143820582
      endloop
   endfacet
   facet normal -0.634393272088458 0.773010438648552 0.000195113489683071
      outer loop
         vertex 21.230791555097 20.8142929654265 21.5970143820582
         vertex 21.226451119805 20.810548880195 22.318
         vertex 21.2323549837216 20.8153940560953 22.318
      endloop
   endfacet
   facet normal -0.471396711980936 0.881921217867569 -0.000324666823802081
      outer loop
         vertex 21.230791555097 20.8142929654265 21.5970143820582
         vertex 21.2323549837216 20.8153940560953 22.318
         vertex 21.2390906534751 20.8189943465866 22.318
      endloop
   endfacet
   facet normal -0.449611234925975 0.893224113002009 -0.000649137977887688
      outer loop
         vertex 21.230791555097 20.8142929654265 21.5970143820582
         vertex 21.2390906534751 20.8189943465866 22.318
         vertex 21.2426905089742 20.8202823954801 21.5970143820582
      endloop
   endfacet
   facet normal -0.290284667427639 0.956940303336901 0.000260203584975998
      outer loop
         vertex 21.2426905089742 20.8202823954801 21.5970143820582
         vertex 21.2390906534751 20.8189943465866 22.318
         vertex 21.2463992810543 20.8212113945245 22.318
      endloop
   endfacet
   facet normal -0.122410649408637 0.992479325493101 -0.00064913797788836
      outer loop
         vertex 21.2426905089742 20.8202823954801 21.5970143820582
         vertex 21.2463992810543 20.8212113945245 22.318
         vertex 21.2559116765918 20.8219130709738 21.5970143820582
      endloop
   endfacet
   facet normal -0.0980171351637262 0.995184674221699 -0.00032466682379507
      outer loop
         vertex 21.2559116765918 20.8219130709738 21.5970143820582
         vertex 21.2463992810543 20.8212113945245 22.318
         vertex 21.254 20.82196 22.318
      endloop
   endfacet
   facet normal 0.0980171384639278 0.995184707729208 0.000195113489689134
      outer loop
         vertex 21.2559116765918 20.8219130709738 21.5970143820582
         vertex 21.254 20.82196 22.318
         vertex 21.2616007189458 20.8212113945245 22.318
      endloop
   endfacet
   facet normal 0.219101173629448 0.975701833778455 -0.000779278870958309
      outer loop
         vertex 21.2559116765918 20.8219130709738 21.5970143820582
         vertex 21.2616007189458 20.8212113945245 22.318
         vertex 21.2689093465249 20.8189943465866 21.5970143820582
      endloop
   endfacet
   facet normal 0.290284677254759 0.956940335732119 1.06066398003132E-14
      outer loop
         vertex 21.2689093465249 20.8189943465866 21.5970143820582
         vertex 21.2616007189458 20.8212113945245 22.318
         vertex 21.2689093465249 20.8189943465866 22.318
      endloop
   endfacet
   facet normal 0.471396736825724 0.881921264348501 1.07561702531504E-14
      outer loop
         vertex 21.2689093465249 20.8189943465866 21.5970143820582
         vertex 21.2689093465249 20.8189943465866 22.318
         vertex 21.2756450162784 20.8153940560953 22.318
      endloop
   endfacet
   facet normal 0.482183768005041 0.876070086793298 -0.000129994019602668
      outer loop
         vertex 21.2689093465249 20.8189943465866 21.5970143820582
         vertex 21.2756450162784 20.8153940560953 22.318
         vertex 21.2764334871376 20.8148531043204 21.5970143820582
      endloop
   endfacet
   facet normal 0.634393280056641 0.773010448358464 0.000113787624170697
      outer loop
         vertex 21.2764334871376 20.8148531043204 21.5970143820582
         vertex 21.2756450162784 20.8153940560953 22.318
         vertex 21.281548880195 20.810548880195 22.318
      endloop
   endfacet
   facet normal 0.662415760439371 0.749136375127278 -0.00022755810790561
      outer loop
         vertex 21.2764334871376 20.8148531043204 21.5970143820582
         vertex 21.281548880195 20.810548880195 22.318
         vertex 21.2828674558438 20.8091639368808 21.5970143820582
      endloop
   endfacet
   facet normal 0.773010438648552 0.634393272088458 0.000195113489687254
      outer loop
         vertex 21.2828674558438 20.8091639368808 21.5970143820582
         vertex 21.281548880195 20.810548880195 22.318
         vertex 21.2863940560953 20.8046450162784 22.318
      endloop
   endfacet
   facet normal 0.810457163551075 0.58579783237426 -0.000292633497789718
      outer loop
         vertex 21.2828674558438 20.8091639368808 21.5970143820582
         vertex 21.2863940560953 20.8046450162784 22.318
         vertex 21.2878985891736 20.8022033135693 21.5970143820582
      endloop
   endfacet
   facet normal 0.881921238110917 0.471396722801231 0.000243928610570431
      outer loop
         vertex 21.2878985891736 20.8022033135693 21.5970143820582
         vertex 21.2863940560953 20.8046450162784 22.318
         vertex 21.2899943465866 20.7979093465249 22.318
      endloop
   endfacet
   facet normal 0.919113803095135 0.393992019230491 -0.00032518099407943
      outer loop
         vertex 21.2878985891736 20.8022033135693 21.5970143820582
         vertex 21.2899943465866 20.7979093465249 22.318
         vertex 21.2912823954801 20.7943094910258 21.5970143820582
      endloop
   endfacet
   facet normal 0.956940303336901 0.290284667427639 0.000260203584978792
      outer loop
         vertex 21.2912823954801 20.7943094910258 21.5970143820582
         vertex 21.2899943465866 20.7979093465249 22.318
         vertex 21.2922113945245 20.7906007189458 22.318
      endloop
   endfacet
   facet normal 0.983105435453122 0.183039878277518 -0.00032518099408151
      outer loop
         vertex 21.2912823954801 20.7943094910258 21.5970143820582
         vertex 21.2922113945245 20.7906007189458 22.318
         vertex 21.2928544361922 20.7858660753979 21.5970143820582
      endloop
   endfacet
   facet normal 0.995184697064862 0.0980171374135813 0.000243928610571556
      outer loop
         vertex 21.2928544361922 20.7858660753979 21.5970143820582
         vertex 21.2922113945245 20.7906007189458 22.318
         vertex 21.29296 20.783 22.318
      endloop
   endfacet
   facet normal 0.999322341800181 -0.0368072213653469 -0.000292633497789709
      outer loop
         vertex 21.2928544361922 20.7858660753979 21.5970143820582
         vertex 21.29296 20.783 22.318
         vertex 21.2925383168282 20.7772833807152 21.5970143820582
      endloop
   endfacet
   facet normal 0.995184707729208 -0.0980171384639278 0.000195113489685319
      outer loop
         vertex 21.2925383168282 20.7772833807152 21.5970143820582
         vertex 21.29296 20.783 22.318
         vertex 21.2922113945245 20.7753992810543 22.318
      endloop
   endfacet
   facet normal 0.966976446008537 -0.254865653005668 -0.000227558107909225
      outer loop
         vertex 21.2925383168282 20.7772833807152 21.5970143820582
         vertex 21.2922113945245 20.7753992810543 22.318
         vertex 21.2903493994426 20.7689784893766 21.5970143820582
      endloop
   endfacet
   facet normal 0.956940329537068 -0.29028467537551 0.000113787624168669
      outer loop
         vertex 21.2903493994426 20.7689784893766 21.5970143820582
         vertex 21.2922113945245 20.7753992810543 22.318
         vertex 21.2899943465866 20.7680906534751 22.318
      endloop
   endfacet
   facet normal 0.887639612903038 -0.460538707066953 -0.000129994019605943
      outer loop
         vertex 21.2903493994426 20.7689784893766 21.5970143820582
         vertex 21.2899943465866 20.7680906534751 22.318
         vertex 21.2863940560953 20.7613549837216 21.5970143820582
      endloop
   endfacet
   facet normal 0.881921264348501 -0.471396736825724 1.97548055782588E-15
      outer loop
         vertex 21.2863940560953 20.7613549837216 21.5970143820582
         vertex 21.2899943465866 20.7680906534751 22.318
         vertex 21.2863940560953 20.7613549837216 22.318
      endloop
   endfacet
   facet normal 0.773010453362788 -0.634393284163584 6.67038153326159E-16
      outer loop
         vertex 21.2863940560953 20.7613549837216 21.5970143820582
         vertex 21.2863940560953 20.7613549837216 22.318
         vertex 21.281548880195 20.755451119805 22.318
      endloop
   endfacet
   facet normal 0.765167259157401 -0.643831537449903 -0.000129994019610162
      outer loop
         vertex 21.2863940560953 20.7613549837216 21.5970143820582
         vertex 21.281548880195 20.755451119805 22.318
         vertex 21.280864499623 20.7547833336482 21.5970143820582
      endloop
   endfacet
   facet normal 0.634393280056961 -0.773010448358201 0.000113787624163124
      outer loop
         vertex 21.280864499623 20.7547833336482 21.5970143820582
         vertex 21.281548880195 20.755451119805 22.318
         vertex 21.2756450162784 20.7506059439047 22.318
      endloop
   endfacet
   facet normal 0.605511025726773 -0.795836884003637 -0.00022755810791603
      outer loop
         vertex 21.280864499623 20.7547833336482 21.5970143820582
         vertex 21.2756450162784 20.7506059439047 22.318
         vertex 21.2740294429138 20.7495828933544 21.5970143820582
      endloop
   endfacet
   facet normal 0.471396727852693 -0.881921247561538 0.000195113489676624
      outer loop
         vertex 21.2740294429138 20.7495828933544 21.5970143820582
         vertex 21.2756450162784 20.7506059439047 22.318
         vertex 21.2689093465249 20.7470056534134 22.318
      endloop
   endfacet
   facet normal 0.416429542267045 -0.909167944162626 -0.000292633497796621
      outer loop
         vertex 21.2740294429138 20.7495828933544 21.5970143820582
         vertex 21.2689093465249 20.7470056534134 22.318
         vertex 21.2662210406059 20.7460063820841 21.5970143820582
      endloop
   endfacet
   facet normal 0.290284668618494 -0.956940307262623 0.000243928610559912
      outer loop
         vertex 21.2662210406059 20.7460063820841 21.5970143820582
         vertex 21.2689093465249 20.7470056534134 22.318
         vertex 21.2616007189458 20.7447886054755 22.318
      endloop
   endfacet
   facet normal 0.20711136524267 -0.978317318994527 -0.000325180994091834
      outer loop
         vertex 21.2662210406059 20.7460063820841 21.5970143820582
         vertex 21.2616007189458 20.7447886054755 22.318
         vertex 21.2578187477872 20.7442276030489 21.5970143820582
      endloop
   endfacet
   facet normal 0.0980171370114788 -0.995184692982246 0.000260203584969204
      outer loop
         vertex 21.2578187477872 20.7442276030489 21.5970143820582
         vertex 21.2616007189458 20.7447886054755 22.318
         vertex 21.254 20.74404 22.318
      endloop
   endfacet
   facet normal -0.012271537637274 -0.99992464897178 -0.000325180994092104
      outer loop
         vertex 21.2578187477872 20.7442276030489 21.5970143820582
         vertex 21.254 20.74404 22.318
         vertex 21.2492308800942 20.744332997332 21.5970143820582
      endloop
   endfacet
   facet normal -0.0980171374135813 -0.995184697064862 0.000243928610560392
      outer loop
         vertex 21.2492308800942 20.744332997332 21.5970143820582
         vertex 21.254 20.74404 22.318
         vertex 21.2463992810543 20.7447886054755 22.318
      endloop
   endfacet
   facet normal -0.231058098387221 -0.972939910547058 -0.000292633497798885
      outer loop
         vertex 21.2492308800942 20.744332997332 21.5970143820582
         vertex 21.2463992810543 20.7447886054755 22.318
         vertex 21.2408747713118 20.7463174432205 21.5970143820582
      endloop
   endfacet
   facet normal -0.290284671729295 -0.956940317517107 0.000195113489679359
      outer loop
         vertex 21.2408747713118 20.7463174432205 21.5970143820582
         vertex 21.2463992810543 20.7447886054755 22.318
         vertex 21.2390906534751 20.7470056534134 22.318
      endloop
   endfacet
   facet normal -0.43861622718208 -0.898674442426102 -0.000227558107912717
      outer loop
         vertex 21.2408747713118 20.7463174432205 21.5970143820582
         vertex 21.2390906534751 20.7470056534134 22.318
         vertex 21.2331564927292 20.7500845050979 21.5970143820582
      endloop
   endfacet
   facet normal -0.47139673377399 -0.881921258639109 0.000113787624160376
      outer loop
         vertex 21.2331564927292 20.7500845050979 21.5970143820582
         vertex 21.2390906534751 20.7470056534134 22.318
         vertex 21.2323549837216 20.7506059439047 22.318
      endloop
   endfacet
   facet normal -0.624859482862889 -0.780737221975408 -0.000129994019614911
      outer loop
         vertex 21.2331564927292 20.7500845050979 21.5970143820582
         vertex 21.2323549837216 20.7506059439047 22.318
         vertex 21.226451119805 20.755451119805 21.5970143820582
      endloop
   endfacet
   facet normal 0 0 1
      outer loop
         vertex 21.2922113945245 20.7753992810543 22.318
         vertex 21.2922113945245 20.7906007189458 22.318
         vertex 21.2899943465866 20.7680906534751 22.318
      endloop
   endfacet
   facet normal 0 0 1
      outer loop
         vertex 21.2899943465866 20.7680906534751 22.318
         vertex 21.2922113945245 20.7906007189458 22.318
         vertex 21.2899943465866 20.7979093465249 22.318
      endloop
   endfacet
   facet normal 0 0 1
      outer loop
         vertex 21.2899943465866 20.7680906534751 22.318
         vertex 21.2899943465866 20.7979093465249 22.318
         vertex 21.2863940560953 20.7613549837216 22.318
      endloop
   endfacet
   facet normal 0 0 1
      outer loop
         vertex 21.2863940560953 20.7613549837216 22.318
         vertex 21.2899943465866 20.7979093465249 22.318
         vertex 21.2863940560953 20.8046450162784 22.318
      endloop
   endfacet
   facet normal 0 0 1
      outer loop
         vertex 21.2863940560953 20.7613549837216 22.318
         vertex 21.2863940560953 20.8046450162784 22.318
         vertex 21.281548880195 20.755451119805 22.318
      endloop
   endfacet
   facet normal 0 0 1
      outer loop
         vertex 21.281548880195 20.755451119805 22.318
         vertex 21.2863940560953 20.8046450162784 22.318
         vertex 21.281548880195 20.810548880195 22.318
      endloop
   endfacet
   facet normal 0 0 1
      outer loop
         vertex 21.281548880195 20.755451119805 22.318
         vertex 21.281548880195 20.810548880195 22.318
         vertex 21.2756450162784 20.7506059439047 22.318
      endloop
   endfacet
   facet normal 0 0 1
      outer loop
         vertex 21.2756450162784 20.7506059439047 22.318
         vertex 21.281548880195 20.810548880195 22.318
         vertex 21.2756450162784 20.8153940560953 22.318
      endloop
   endfacet
   facet normal 0 0 1
      outer loop
         vertex 21.2756450162784 20.7506059439047 22.318
         vertex 21.2756450162784 20.8153940560953 22.318
         vertex 21.2689093465249 20.7470056534134 22.318
      endloop
   endfacet
   facet normal 0 0 1
      outer loop
         vertex 21.2689093465249 20.7470056534134 22.318
         vertex 21.2756450162784 20.8153940560953 22.318
         vertex 21.2689093465249 20.8189943465866 22.318
      endloop
   endfacet
   facet normal 0 0 1
      outer loop
         vertex 21.2689093465249 20.7470056534134 22.318
         vertex 21.2689093465249 20.8189943465866 22.318
         vertex 21.2616007189458 20.7447886054755 22.318
      endloop
   endfacet
   facet normal 0 0 1
      outer loop
         vertex 21.2616007189458 20.7447886054755 22.318
         vertex 21.2689093465249 20.8189943465866 22.318
         vertex 21.2616007189458 20.8212113945245 22.318
      endloop
   endfacet
   facet normal 0 0 1
      outer loop
         vertex 21.2616007189458 20.7447886054755 22.318
         vertex 21.2616007189458 20.8212113945245 22.318
         vertex 21.254 20.74404 22.318
      endloop
   endfacet
   facet normal 0 0 1
      outer loop
         vertex 21.254 20.74404 22.318
         vertex 21.2616007189458 20.8212113945245 22.318
         vertex 21.254 20.82196 22.318
      endloop
   endfacet
   facet normal 0 0 1
      outer loop
         vertex 21.254 20.74404 22.318
         vertex 21.254 20.82196 22.318
         vertex 21.2463992810543 20.7447886054755 22.318
      endloop
   endfacet
   facet normal 0 0 1
      outer loop
         vertex 21.2463992810543 20.7447886054755 22.318
         vertex 21.254 20.82196 22.318
         vertex 21.2463992810543 20.8212113945245 22.318
      endloop
   endfacet
   facet normal 0 0 1
      outer loop
         vertex 21.2463992810543 20.7447886054755 22.318
         vertex 21.2463992810543 20.8212113945245 22.318
         vertex 21.2390906534751 20.7470056534134 22.318
      endloop
   endfacet
   facet normal 0 0 1
      outer loop
         vertex 21.2390906534751 20.7470056534134 22.318
         vertex 21.2463992810543 20.8212113945245 22.318
         vertex 21.2390906534751 20.8189943465866 22.318
      endloop
   endfacet
   facet normal 0 0 1
      outer loop
         vertex 21.2390906534751 20.7470056534134 22.318
         vertex 21.2390906534751 20.8189943465866 22.318
         vertex 21.2323549837216 20.7506059439047 22.318
      endloop
   endfacet
   facet normal 0 0 1
      outer loop
         vertex 21.2323549837216 20.7506059439047 22.318
         vertex 21.2390906534751 20.8189943465866 22.318
         vertex 21.2323549837216 20.8153940560953 22.318
      endloop
   endfacet
   facet normal 0 0 1
      outer loop
         vertex 21.2323549837216 20.7506059439047 22.318
         vertex 21.2323549837216 20.8153940560953 22.318
         vertex 21.226451119805 20.755451119805 22.318
      endloop
   endfacet
   facet normal 0 0 1
      outer loop
         vertex 21.226451119805 20.755451119805 22.318
         vertex 21.2323549837216 20.8153940560953 22.318
         vertex 21.226451119805 20.810548880195 22.318
      endloop
   endfacet
   facet normal 0 0 1
      outer loop
         vertex 21.226451119805 20.755451119805 22.318
         vertex 21.226451119805 20.810548880195 22.318
         vertex 21.2216059439047 20.7613549837216 22.318
      endloop
   endfacet
   facet normal 0 0 1
      outer loop
         vertex 21.2216059439047 20.7613549837216 22.318
         vertex 21.226451119805 20.810548880195 22.318
         vertex 21.2216059439047 20.8046450162784 22.318
      endloop
   endfacet
   facet normal 0 0 1
      outer loop
         vertex 21.2216059439047 20.7613549837216 22.318
         vertex 21.2216059439047 20.8046450162784 22.318
         vertex 21.2180056534134 20.7680906534751 22.318
      endloop
   endfacet
   facet normal 0 0 1
      outer loop
         vertex 21.2180056534134 20.7680906534751 22.318
         vertex 21.2216059439047 20.8046450162784 22.318
         vertex 21.2180056534134 20.7979093465249 22.318
      endloop
   endfacet
   facet normal 0 0 1
      outer loop
         vertex 21.2180056534134 20.7680906534751 22.318
         vertex 21.2180056534134 20.7979093465249 22.318
         vertex 21.2157886054755 20.7753992810543 22.318
      endloop
   endfacet
   facet normal 0 0 1
      outer loop
         vertex 21.2157886054755 20.7753992810543 22.318
         vertex 21.2180056534134 20.7979093465249 22.318
         vertex 21.2157886054755 20.7906007189458 22.318
      endloop
   endfacet
   facet normal 0 0 1
      outer loop
         vertex 21.2157886054755 20.7753992810543 22.318
         vertex 21.2157886054755 20.7906007189458 22.318
         vertex 21.21504 20.783 22.318
      endloop
   endfacet
   facet normal 0 0 1
      outer loop
         vertex 21.2922113945245 20.7753992810543 22.318
         vertex 21.29296 20.783 22.318
         vertex 21.2922113945245 20.7906007189458 22.318
      endloop
   endfacet
endsolid
solid "<stl unit=MM>"
   facet normal 0 0 -1
      outer loop
         vertex 21.2152276030489 20.7791812522128 20.8760287641164
         vertex 21.2162075823755 20.792466507809 20.8760287641164
         vertex 21.2187805771399 20.76634245356 20.8760287641164
      endloop
   endfacet
   facet normal 0 0 -1
      outer loop
         vertex 21.2187805771399 20.76634245356 20.8760287641164
         vertex 21.2162075823755 20.792466507809 20.8760287641164
         vertex 21.2216059439047 20.8046450162784 20.8760287641164
      endloop
   endfacet
   facet normal 0 0 -1
      outer loop
         vertex 21.2187805771399 20.76634245356 20.8760287641164
         vertex 21.2216059439047 20.8046450162784 20.8760287641164
         vertex 21.226451119805 20.755451119805 20.8760287641164
      endloop
   endfacet
   facet normal 0 0 -1
      outer loop
         vertex 21.226451119805 20.755451119805 20.8760287641164
         vertex 21.2216059439047 20.8046450162784 20.8760287641164
         vertex 21.230791555097 20.8142929654265 20.8760287641164
      endloop
   endfacet
   facet normal 0 0 -1
      outer loop
         vertex 21.226451119805 20.755451119805 20.8760287641164
         vertex 21.230791555097 20.8142929654265 20.8760287641164
         vertex 21.2331564927292 20.7500845050979 20.8760287641164
      endloop
   endfacet
   facet normal 0 0 -1
      outer loop
         vertex 21.2331564927292 20.7500845050979 20.8760287641164
         vertex 21.230791555097 20.8142929654265 20.8760287641164
         vertex 21.2408747713118 20.7463174432205 20.8760287641164
      endloop
   endfacet
   facet normal 0 0 -1
      outer loop
         vertex 21.230791555097 20.8142929654265 20.8760287641164
         vertex 21.2426905089742 20.8202823954801 20.8760287641164
         vertex 21.2408747713118 20.7463174432205 20.8760287641164
      endloop
   endfacet
   facet normal 0 0 -1
      outer loop
         vertex 21.2408747713118 20.7463174432205 20.8760287641164
         vertex 21.2426905089742 20.8202823954801 20.8760287641164
         vertex 21.2492308800942 20.744332997332 20.8760287641164
      endloop
   endfacet
   facet normal 0 0 -1
      outer loop
         vertex 21.2426905089742 20.8202823954801 20.8760287641164
         vertex 21.2559116765918 20.8219130709738 20.8760287641164
         vertex 21.2492308800942 20.744332997332 20.8760287641164
      endloop
   endfacet
   facet normal 0 0 -1
      outer loop
         vertex 21.2492308800942 20.744332997332 20.8760287641164
         vertex 21.2559116765918 20.8219130709738 20.8760287641164
         vertex 21.2578187477872 20.7442276030489 20.8760287641164
      endloop
   endfacet
   facet normal 0 0 -1
      outer loop
         vertex 21.2578187477872 20.7442276030489 20.8760287641164
         vertex 21.2559116765918 20.8219130709738 20.8760287641164
         vertex 21.2662210406059 20.7460063820841 20.8760287641164
      endloop
   endfacet
   facet normal 0 0 -1
      outer loop
         vertex 21.2662210406059 20.7460063820841 20.8760287641164
         vertex 21.2559116765918 20.8219130709738 20.8760287641164
         vertex 21.2689093465249 20.8189943465866 20.8760287641164
      endloop
   endfacet
   facet normal 0 0 -1
      outer loop
         vertex 21.2662210406059 20.7460063820841 20.8760287641164
         vertex 21.2689093465249 20.8189943465866 20.8760287641164
         vertex 21.2740294429138 20.7495828933544 20.8760287641164
      endloop
   endfacet
   facet normal 0 0 -1
      outer loop
         vertex 21.2740294429138 20.7495828933544 20.8760287641164
         vertex 21.2689093465249 20.8189943465866 20.8760287641164
         vertex 21.2764334871376 20.8148531043204 20.8760287641164
      endloop
   endfacet
   facet normal 0 0 -1
      outer loop
         vertex 21.2740294429138 20.7495828933544 20.8760287641164
         vertex 21.2764334871376 20.8148531043204 20.8760287641164
         vertex 21.280864499623 20.7547833336482 20.8760287641164
      endloop
   endfacet
   facet normal 0 0 -1
      outer loop
         vertex 21.280864499623 20.7547833336482 20.8760287641164
         vertex 21.2764334871376 20.8148531043204 20.8760287641164
         vertex 21.2828674558438 20.8091639368808 20.8760287641164
      endloop
   endfacet
   facet normal 0 0 -1
      outer loop
         vertex 21.280864499623 20.7547833336482 20.8760287641164
         vertex 21.2828674558438 20.8091639368808 20.8760287641164
         vertex 21.2863940560953 20.7613549837216 20.8760287641164
      endloop
   endfacet
   facet normal 0 0 -1
      outer loop
         vertex 21.2863940560953 20.7613549837216 20.8760287641164
         vertex 21.2828674558438 20.8091639368808 20.8760287641164
         vertex 21.2878985891736 20.8022033135693 20.8760287641164
      endloop
   endfacet
   facet normal 0 0 -1
      outer loop
         vertex 21.2863940560953 20.7613549837216 20.8760287641164
         vertex 21.2878985891736 20.8022033135693 20.8760287641164
         vertex 21.2903493994426 20.7689784893766 20.8760287641164
      endloop
   endfacet
   facet normal 0 0 -1
      outer loop
         vertex 21.2903493994426 20.7689784893766 20.8760287641164
         vertex 21.2878985891736 20.8022033135693 20.8760287641164
         vertex 21.2912823954801 20.7943094910258 20.8760287641164
      endloop
   endfacet
   facet normal 0 0 -1
      outer loop
         vertex 21.2903493994426 20.7689784893766 20.8760287641164
         vertex 21.2912823954801 20.7943094910258 20.8760287641164
         vertex 21.2925383168282 20.7772833807152 20.8760287641164
      endloop
   endfacet
   facet normal 0 0 -1
      outer loop
         vertex 21.2925383168282 20.7772833807152 20.8760287641164
         vertex 21.2912823954801 20.7943094910258 20.8760287641164
         vertex 21.2928544361922 20.7858660753978 20.8760287641164
      endloop
   endfacet
   facet normal -0.634393284163584 -0.773010453362788 6.77273180698206E-15
      outer loop
         vertex 21.2323549837216 20.7506059439047 21.5970143820582
         vertex 21.226451119805 20.755451119805 21.5970143820582
         vertex 21.226451119805 20.755451119805 20.8760287641164
      endloop
   endfacet
   facet normal -0.773010453362525 -0.634393284163904 6.77255202575118E-15
      outer loop
         vertex 21.226451119805 20.755451119805 20.8760287641164
         vertex 21.226451119805 20.755451119805 21.5970143820582
         vertex 21.2216059439047 20.7613549837216 21.5970143820582
      endloop
   endfacet
   facet normal -0.817584564901932 -0.575808016580665 -0.000779278870963577
      outer loop
         vertex 21.226451119805 20.755451119805 20.8760287641164
         vertex 21.2216059439047 20.7613549837216 21.5970143820582
         vertex 21.2187805771399 20.76634245356 20.8760287641164
      endloop
   endfacet
   facet normal -0.881921247561538 -0.471396727852693 0.00019511348968774
      outer loop
         vertex 21.2187805771399 20.76634245356 20.8760287641164
         vertex 21.2216059439047 20.7613549837216 21.5970143820582
         vertex 21.2180056534134 20.7680906534751 21.5970143820582
      endloop
   endfacet
   facet normal -0.956940285297311 -0.290284661955389 -0.000324666823793844
      outer loop
         vertex 21.2187805771399 20.76634245356 20.8760287641164
         vertex 21.2180056534134 20.7680906534751 21.5970143820582
         vertex 21.2157886054755 20.7753992810543 21.5970143820582
      endloop
   endfacet
   facet normal -0.963775862737392 -0.266712701281137 -0.00064913797788912
      outer loop
         vertex 21.2187805771399 20.76634245356 20.8760287641164
         vertex 21.2157886054755 20.7753992810543 21.5970143820582
         vertex 21.2152276030489 20.7791812522128 20.8760287641164
      endloop
   endfacet
   facet normal -0.995184692982246 -0.0980171370114788 0.000260203584973993
      outer loop
         vertex 21.2152276030489 20.7791812522128 20.8760287641164
         vertex 21.2157886054755 20.7753992810543 21.5970143820582
         vertex 21.21504 20.783 21.5970143820582
      endloop
   endfacet
   facet normal -0.997290246559496 0.0735645481001906 -0.000649137977891138
      outer loop
         vertex 21.2152276030489 20.7791812522128 20.8760287641164
         vertex 21.21504 20.783 21.5970143820582
         vertex 21.2162075823755 20.792466507809 20.8760287641164
      endloop
   endfacet
   facet normal -0.995184674221699 0.0980171351637262 -0.00032466682379554
      outer loop
         vertex 21.2162075823755 20.792466507809 20.8760287641164
         vertex 21.21504 20.783 21.5970143820582
         vertex 21.2157886054755 20.7906007189458 21.5970143820582
      endloop
   endfacet
   facet normal -0.956940317517107 0.290284671729295 0.000195113489686825
      outer loop
         vertex 21.2162075823755 20.792466507809 20.8760287641164
         vertex 21.2157886054755 20.7906007189458 21.5970143820582
         vertex 21.2180056534134 20.7979093465249 21.5970143820582
      endloop
   endfacet
   facet normal -0.914209478114837 0.40524119095847 -0.000779278870959652
      outer loop
         vertex 21.2162075823755 20.792466507809 20.8760287641164
         vertex 21.2180056534134 20.7979093465249 21.5970143820582
         vertex 21.2216059439047 20.8046450162784 20.8760287641164
      endloop
   endfacet
   facet normal -0.881921264348501 0.471396736825724 1.97548055782588E-15
      outer loop
         vertex 21.2216059439047 20.8046450162784 20.8760287641164
         vertex 21.2180056534134 20.7979093465249 21.5970143820582
         vertex 21.2216059439047 20.8046450162784 21.5970143820582
      endloop
   endfacet
   facet normal -0.773010453362788 0.634393284163584 6.67038153326159E-16
      outer loop
         vertex 21.2216059439047 20.8046450162784 20.8760287641164
         vertex 21.2216059439047 20.8046450162784 21.5970143820582
         vertex 21.226451119805 20.810548880195 21.5970143820582
      endloop
   endfacet
   facet normal -0.724246863042533 0.689540335366606 -0.000779278870968183
      outer loop
         vertex 21.2216059439047 20.8046450162784 20.8760287641164
         vertex 21.226451119805 20.810548880195 21.5970143820582
         vertex 21.230791555097 20.8142929654265 20.8760287641164
      endloop
   endfacet
   facet normal -0.634393272088458 0.773010438648552 0.000195113489674965
      outer loop
         vertex 21.230791555097 20.8142929654265 20.8760287641164
         vertex 21.226451119805 20.810548880195 21.5970143820582
         vertex 21.2323549837216 20.8153940560953 21.5970143820582
      endloop
   endfacet
   facet normal -0.471396711980936 0.881921217867569 -0.000324666823812544
      outer loop
         vertex 21.230791555097 20.8142929654265 20.8760287641164
         vertex 21.2323549837216 20.8153940560953 21.5970143820582
         vertex 21.2390906534751 20.8189943465866 21.5970143820582
      endloop
   endfacet
   facet normal -0.449611234926079 0.893224113001957 -0.000649137977896892
      outer loop
         vertex 21.230791555097 20.8142929654265 20.8760287641164
         vertex 21.2390906534751 20.8189943465866 21.5970143820582
         vertex 21.2426905089742 20.8202823954801 20.8760287641164
      endloop
   endfacet
   facet normal -0.290284667427639 0.956940303336901 0.000260203584966788
      outer loop
         vertex 21.2426905089742 20.8202823954801 20.8760287641164
         vertex 21.2390906534751 20.8189943465866 21.5970143820582
         vertex 21.2463992810543 20.8212113945245 21.5970143820582
      endloop
   endfacet
   facet normal -0.122410649408412 0.992479325493129 -0.000649137977899105
      outer loop
         vertex 21.2426905089742 20.8202823954801 20.8760287641164
         vertex 21.2463992810543 20.8212113945245 21.5970143820582
         vertex 21.2559116765918 20.8219130709738 20.8760287641164
      endloop
   endfacet
   facet normal -0.0980171351637262 0.995184674221699 -0.000324666823808965
      outer loop
         vertex 21.2559116765918 20.8219130709738 20.8760287641164
         vertex 21.2463992810543 20.8212113945245 21.5970143820582
         vertex 21.254 20.82196 21.5970143820582
      endloop
   endfacet
   facet normal 0.0980171384639278 0.995184707729208 0.000195113489674296
      outer loop
         vertex 21.2559116765918 20.8219130709738 20.8760287641164
         vertex 21.254 20.82196 21.5970143820582
         vertex 21.2616007189458 20.8212113945245 21.5970143820582
      endloop
   endfacet
   facet normal 0.219101173629448 0.975701833778455 -0.000779278870973449
      outer loop
         vertex 21.2559116765918 20.8219130709738 20.8760287641164
         vertex 21.2616007189458 20.8212113945245 21.5970143820582
         vertex 21.2689093465249 20.8189943465866 20.8760287641164
      endloop
   endfacet
   facet normal 0.290284677254759 0.956940335732119 -4.60488205088618E-15
      outer loop
         vertex 21.2689093465249 20.8189943465866 20.8760287641164
         vertex 21.2616007189458 20.8212113945245 21.5970143820582
         vertex 21.2689093465249 20.8189943465866 21.5970143820582
      endloop
   endfacet
   facet normal 0.471396736825724 0.881921264348501 -4.24388360365877E-15
      outer loop
         vertex 21.2689093465249 20.8189943465866 20.8760287641164
         vertex 21.2689093465249 20.8189943465866 21.5970143820582
         vertex 21.2756450162784 20.8153940560953 21.5970143820582
      endloop
   endfacet
   facet normal 0.482183768005211 0.876070086793204 -0.000129994019619699
      outer loop
         vertex 21.2689093465249 20.8189943465866 20.8760287641164
         vertex 21.2756450162784 20.8153940560953 21.5970143820582
         vertex 21.2764334871376 20.8148531043204 20.8760287641164
      endloop
   endfacet
   facet normal 0.634393280056641 0.773010448358464 0.000113787624153432
      outer loop
         vertex 21.2764334871376 20.8148531043204 20.8760287641164
         vertex 21.2756450162784 20.8153940560953 21.5970143820582
         vertex 21.281548880195 20.810548880195 21.5970143820582
      endloop
   endfacet
   facet normal 0.662415760439145 0.749136375127478 -0.000227558107919995
      outer loop
         vertex 21.2764334871376 20.8148531043204 20.8760287641164
         vertex 21.281548880195 20.810548880195 21.5970143820582
         vertex 21.2828674558438 20.8091639368808 20.8760287641164
      endloop
   endfacet
   facet normal 0.773010438648552 0.634393272088458 0.000195113489673709
      outer loop
         vertex 21.2828674558438 20.8091639368808 20.8760287641164
         vertex 21.281548880195 20.810548880195 21.5970143820582
         vertex 21.2863940560953 20.8046450162784 21.5970143820582
      endloop
   endfacet
   facet normal 0.810457163551161 0.585797832374142 -0.000292633497804315
      outer loop
         vertex 21.2828674558438 20.8091639368808 20.8760287641164
         vertex 21.2863940560953 20.8046450162784 21.5970143820582
         vertex 21.2878985891736 20.8022033135693 20.8760287641164
      endloop
   endfacet
   facet normal 0.881921238110917 0.471396722801231 0.000243928610557113
      outer loop
         vertex 21.2878985891736 20.8022033135693 20.8760287641164
         vertex 21.2863940560953 20.8046450162784 21.5970143820582
         vertex 21.2899943465866 20.7979093465249 21.5970143820582
      endloop
   endfacet
   facet normal 0.919113803095281 0.393992019230149 -0.000325180994093895
      outer loop
         vertex 21.2878985891736 20.8022033135693 20.8760287641164
         vertex 21.2899943465866 20.7979093465249 21.5970143820582
         vertex 21.2912823954801 20.7943094910258 20.8760287641164
      endloop
   endfacet
   facet normal 0.956940303336901 0.290284667427639 0.000260203584963995
      outer loop
         vertex 21.2912823954801 20.7943094910258 20.8760287641164
         vertex 21.2899943465866 20.7979093465249 21.5970143820582
         vertex 21.2922113945245 20.7906007189458 21.5970143820582
      endloop
   endfacet
   facet normal 0.983105435453122 0.183039878277518 -0.000325180994094495
      outer loop
         vertex 21.2912823954801 20.7943094910258 20.8760287641164
         vertex 21.2922113945245 20.7906007189458 21.5970143820582
         vertex 21.2928544361922 20.7858660753978 20.8760287641164
      endloop
   endfacet
   facet normal 0.995184697064862 0.0980171374135813 0.000243928610560092
      outer loop
         vertex 21.2928544361922 20.7858660753978 20.8760287641164
         vertex 21.2922113945245 20.7906007189458 21.5970143820582
         vertex 21.29296 20.783 21.5970143820582
      endloop
   endfacet
   facet normal 0.99932234180018 -0.0368072213653766 -0.000292633497798736
      outer loop
         vertex 21.2928544361922 20.7858660753978 20.8760287641164
         vertex 21.29296 20.783 21.5970143820582
         vertex 21.2925383168282 20.7772833807152 20.8760287641164
      endloop
   endfacet
   facet normal 0.995184707729208 -0.0980171384639278 0.000195113489676684
      outer loop
         vertex 21.2925383168282 20.7772833807152 20.8760287641164
         vertex 21.29296 20.783 21.5970143820582
         vertex 21.2922113945245 20.7753992810543 21.5970143820582
      endloop
   endfacet
   facet normal 0.966976446008564 -0.254865653005569 -0.000227558107915806
      outer loop
         vertex 21.2925383168282 20.7772833807152 20.8760287641164
         vertex 21.2922113945245 20.7753992810543 21.5970143820582
         vertex 21.2903493994426 20.7689784893766 20.8760287641164
      endloop
   endfacet
   facet normal 0.956940329537068 -0.29028467537551 0.00011378762416365
      outer loop
         vertex 21.2903493994426 20.7689784893766 20.8760287641164
         vertex 21.2922113945245 20.7753992810543 21.5970143820582
         vertex 21.2899943465866 20.7680906534751 21.5970143820582
      endloop
   endfacet
   facet normal 0.887639612902952 -0.460538707067118 -0.000129994019608082
      outer loop
         vertex 21.2903493994426 20.7689784893766 20.8760287641164
         vertex 21.2899943465866 20.7680906534751 21.5970143820582
         vertex 21.2863940560953 20.7613549837216 20.8760287641164
      endloop
   endfacet
   facet normal 0.881921264348501 -0.471396736825724 -1.97548055782588E-15
      outer loop
         vertex 21.2863940560953 20.7613549837216 20.8760287641164
         vertex 21.2899943465866 20.7680906534751 21.5970143820582
         vertex 21.2863940560953 20.7613549837216 21.5970143820582
      endloop
   endfacet
   facet normal 0.773010453362788 -0.634393284163584 -6.67038153326159E-16
      outer loop
         vertex 21.2863940560953 20.7613549837216 20.8760287641164
         vertex 21.2863940560953 20.7613549837216 21.5970143820582
         vertex 21.281548880195 20.755451119805 21.5970143820582
      endloop
   endfacet
   facet normal 0.765167259157401 -0.643831537449903 -0.00012999401961133
      outer loop
         vertex 21.2863940560953 20.7613549837216 20.8760287641164
         vertex 21.281548880195 20.755451119805 21.5970143820582
         vertex 21.280864499623 20.7547833336482 20.8760287641164
      endloop
   endfacet
   facet normal 0.634393280056961 -0.773010448358201 0.000113787624164458
      outer loop
         vertex 21.280864499623 20.7547833336482 20.8760287641164
         vertex 21.281548880195 20.755451119805 21.5970143820582
         vertex 21.2756450162784 20.7506059439047 21.5970143820582
      endloop
   endfacet
   facet normal 0.605511025726773 -0.795836884003637 -0.000227558107914199
      outer loop
         vertex 21.280864499623 20.7547833336482 20.8760287641164
         vertex 21.2756450162784 20.7506059439047 21.5970143820582
         vertex 21.2740294429138 20.7495828933544 20.8760287641164
      endloop
   endfacet
   facet normal 0.471396727852693 -0.881921247561538 0.000195113489680574
      outer loop
         vertex 21.2740294429138 20.7495828933544 20.8760287641164
         vertex 21.2756450162784 20.7506059439047 21.5970143820582
         vertex 21.2689093465249 20.7470056534134 21.5970143820582
      endloop
   endfacet
   facet normal 0.416429542267379 -0.909167944162473 -0.000292633497788961
      outer loop
         vertex 21.2740294429138 20.7495828933544 20.8760287641164
         vertex 21.2689093465249 20.7470056534134 21.5970143820582
         vertex 21.2662210406059 20.7460063820841 20.8760287641164
      endloop
   endfacet
   facet normal 0.290284668618494 -0.956940307262623 0.000243928610570933
      outer loop
         vertex 21.2662210406059 20.7460063820841 20.8760287641164
         vertex 21.2689093465249 20.7470056534134 21.5970143820582
         vertex 21.2616007189458 20.7447886054755 21.5970143820582
      endloop
   endfacet
   facet normal 0.207111365241897 -0.97831731899469 -0.000325180994084936
      outer loop
         vertex 21.2662210406059 20.7460063820841 20.8760287641164
         vertex 21.2616007189458 20.7447886054755 21.5970143820582
         vertex 21.2578187477872 20.7442276030489 20.8760287641164
      endloop
   endfacet
   facet normal 0.0980171370114788 -0.995184692982246 0.00026020358497305
      outer loop
         vertex 21.2578187477872 20.7442276030489 20.8760287641164
         vertex 21.2616007189458 20.7447886054755 21.5970143820582
         vertex 21.254 20.74404 21.5970143820582
      endloop
   endfacet
   facet normal -0.0122715376368651 -0.999924648971785 -0.00032518099408501
      outer loop
         vertex 21.2578187477872 20.7442276030489 20.8760287641164
         vertex 21.254 20.74404 21.5970143820582
         vertex 21.2492308800942 20.744332997332 20.8760287641164
      endloop
   endfacet
   facet normal -0.0980171374135813 -0.995184697064862 0.000243928610571385
      outer loop
         vertex 21.2492308800942 20.744332997332 20.8760287641164
         vertex 21.254 20.74404 21.5970143820582
         vertex 21.2463992810543 20.7447886054755 21.5970143820582
      endloop
   endfacet
   facet normal -0.231058098387312 -0.972939910547036 -0.000292633497786556
      outer loop
         vertex 21.2492308800942 20.744332997332 20.8760287641164
         vertex 21.2463992810543 20.7447886054755 21.5970143820582
         vertex 21.2408747713118 20.7463174432205 20.8760287641164
      endloop
   endfacet
   facet normal -0.290284671729295 -0.956940317517107 0.000195113489691362
      outer loop
         vertex 21.2408747713118 20.7463174432205 20.8760287641164
         vertex 21.2463992810543 20.7447886054755 21.5970143820582
         vertex 21.2390906534751 20.7470056534134 21.5970143820582
      endloop
   endfacet
   facet normal -0.43861622718208 -0.898674442426102 -0.000227558107899846
      outer loop
         vertex 21.2408747713118 20.7463174432205 20.8760287641164
         vertex 21.2390906534751 20.7470056534134 21.5970143820582
         vertex 21.2331564927292 20.7500845050979 20.8760287641164
      endloop
   endfacet
   facet normal -0.47139673377399 -0.881921258639109 0.000113787624173401
      outer loop
         vertex 21.2331564927292 20.7500845050979 20.8760287641164
         vertex 21.2390906534751 20.7470056534134 21.5970143820582
         vertex 21.2323549837216 20.7506059439047 21.5970143820582
      endloop
   endfacet
   facet normal -0.624859482862889 -0.780737221975408 -0.000129994019601384
      outer loop
         vertex 21.2331564927292 20.7500845050979 20.8760287641164
         vertex 21.2323549837216 20.7506059439047 21.5970143820582
         vertex 21.226451119805 20.755451119805 20.8760287641164
      endloop
   endfacet
   facet normal 0 0 1
      outer loop
         vertex 21.2922113945245 20.7753992810543 21.5970143820582
         vertex 21.2922113945245 20.7906007189458 21.5970143820582
         vertex 21.2899943465866 20.7680906534751 21.5970143820582
      endloop
   endfacet
   facet normal 0 0 1
      outer loop
         vertex 21.2899943465866 20.7680906534751 21.5970143820582
         vertex 21.2922113945245 20.7906007189458 21.5970143820582
         vertex 21.2899943465866 20.7979093465249 21.5970143820582
      endloop
   endfacet
   facet normal 0 0 1
      outer loop
         vertex 21.2899943465866 20.7680906534751 21.5970143820582
         vertex 21.2899943465866 20.7979093465249 21.5970143820582
         vertex 21.2863940560953 20.7613549837216 21.5970143820582
      endloop
   endfacet
   facet normal 0 0 1
      outer loop
         vertex 21.2863940560953 20.7613549837216 21.5970143820582
         vertex 21.2899943465866 20.7979093465249 21.5970143820582
         vertex 21.2863940560953 20.8046450162784 21.5970143820582
      endloop
   endfacet
   facet normal 0 0 1
      outer loop
         vertex 21.2863940560953 20.7613549837216 21.5970143820582
         vertex 21.2863940560953 20.8046450162784 21.5970143820582
         vertex 21.281548880195 20.755451119805 21.5970143820582
      endloop
   endfacet
   facet normal 0 0 1
      outer loop
         vertex 21.281548880195 20.755451119805 21.5970143820582
         vertex 21.2863940560953 20.8046450162784 21.5970143820582
         vertex 21.281548880195 20.810548880195 21.5970143820582
      endloop
   endfacet
   facet normal 0 0 1
      outer loop
         vertex 21.281548880195 20.755451119805 21.5970143820582
         vertex 21.281548880195 20.810548880195 21.5970143820582
         vertex 21.2756450162784 20.7506059439047 21.5970143820582
      endloop
   endfacet
   facet normal 0 0 1
      outer loop
         vertex 21.2756450162784 20.7506059439047 21.5970143820582
         vertex 21.281548880195 20.810548880195 21.5970143820582
         vertex 21.2756450162784 20.8153940560953 21.5970143820582
      endloop
   endfacet
   facet normal 0 0 1
      outer loop
         vertex 21.2756450162784 20.7506059439047 21.5970143820582
         vertex 21.2756450162784 20.8153940560953 21.5970143820582
         vertex 21.2689093465249 20.7470056534134 21.5970143820582
      endloop
   endfacet
   facet normal 0 0 1
      outer loop
         vertex 21.2689093465249 20.7470056534134 21.5970143820582
         vertex 21.2756450162784 20.8153940560953 21.5970143820582
         vertex 21.2689093465249 20.8189943465866 21.5970143820582
      endloop
   endfacet
   facet normal 0 0 1
      outer loop
         vertex 21.2689093465249 20.7470056534134 21.5970143820582
         vertex 21.2689093465249 20.8189943465866 21.5970143820582
         vertex 21.2616007189458 20.7447886054755 21.5970143820582
      endloop
   endfacet
   facet normal 0 0 1
      outer loop
         vertex 21.2616007189458 20.7447886054755 21.5970143820582
         vertex 21.2689093465249 20.8189943465866 21.5970143820582
         vertex 21.2616007189458 20.8212113945245 21.5970143820582
      endloop
   endfacet
   facet normal 0 0 1
      outer loop
         vertex 21.2616007189458 20.7447886054755 21.5970143820582
         vertex 21.2616007189458 20.8212113945245 21.5970143820582
         vertex 21.254 20.74404 21.5970143820582
      endloop
   endfacet
   facet normal 0 0 1
      outer loop
         vertex 21.254 20.74404 21.5970143820582
         vertex 21.2616007189458 20.8212113945245 21.5970143820582
         vertex 21.254 20.82196 21.5970143820582
      endloop
   endfacet
   facet normal 0 0 1
      outer loop
         vertex 21.254 20.74404 21.5970143820582
         vertex 21.254 20.82196 21.5970143820582
         vertex 21.2463992810543 20.7447886054755 21.5970143820582
      endloop
   endfacet
   facet normal 0 0 1
      outer loop
         vertex 21.2463992810543 20.7447886054755 21.5970143820582
         vertex 21.254 20.82196 21.5970143820582
         vertex 21.2463992810543 20.8212113945245 21.5970143820582
      endloop
   endfacet
   facet normal 0 0 1
      outer loop
         vertex 21.2463992810543 20.7447886054755 21.5970143820582
         vertex 21.2463992810543 20.8212113945245 21.5970143820582
         vertex 21.2390906534751 20.7470056534134 21.5970143820582
      endloop
   endfacet
   facet normal 0 0 1
      outer loop
         vertex 21.2390906534751 20.7470056534134 21.5970143820582
         vertex 21.2463992810543 20.8212113945245 21.5970143820582
         vertex 21.2390906534751 20.8189943465866 21.5970143820582
      endloop
   endfacet
   facet normal 0 0 1
      outer loop
         vertex 21.2390906534751 20.7470056534134 21.5970143820582
         vertex 21.2390906534751 20.8189943465866 21.5970143820582
         vertex 21.2323549837216 20.7506059439047 21.5970143820582
      endloop
   endfacet
   facet normal 0 0 1
      outer loop
         vertex 21.2323549837216 20.7506059439047 21.5970143820582
         vertex 21.2390906534751 20.8189943465866 21.5970143820582
         vertex 21.2323549837216 20.8153940560953 21.5970143820582
      endloop
   endfacet
   facet normal 0 0 1
      outer loop
         vertex 21.2323549837216 20.7506059439047 21.5970143820582
         vertex 21.2323549837216 20.8153940560953 21.5970143820582
         vertex 21.226451119805 20.755451119805 21.5970143820582
      endloop
   endfacet
   facet normal 0 0 1
      outer loop
         vertex 21.226451119805 20.755451119805 21.5970143820582
         vertex 21.2323549837216 20.8153940560953 21.5970143820582
         vertex 21.226451119805 20.810548880195 21.5970143820582
      endloop
   endfacet
   facet normal 0 0 1
      outer loop
         vertex 21.226451119805 20.755451119805 21.5970143820582
         vertex 21.226451119805 20.810548880195 21.5970143820582
         vertex 21.2216059439047 20.7613549837216 21.5970143820582
      endloop
   endfacet
   facet normal 0 0 1
      outer loop
         vertex 21.2216059439047 20.7613549837216 21.5970143820582
         vertex 21.226451119805 20.810548880195 21.5970143820582
         vertex 21.2216059439047 20.8046450162784 21.5970143820582
      endloop
   endfacet
   facet normal 0 0 1
      outer loop
         vertex 21.2216059439047 20.7613549837216 21.5970143820582
         vertex 21.2216059439047 20.8046450162784 21.5970143820582
         vertex 21.2180056534134 20.7680906534751 21.5970143820582
      endloop
   endfacet
   facet normal 0 0 1
      outer loop
         vertex 21.2180056534134 20.7680906534751 21.5970143820582
         vertex 21.2216059439047 20.8046450162784 21.5970143820582
         vertex 21.2180056534134 20.7979093465249 21.5970143820582
      endloop
   endfacet
   facet normal 0 0 1
      outer loop
         vertex 21.2180056534134 20.7680906534751 21.5970143820582
         vertex 21.2180056534134 20.7979093465249 21.5970143820582
         vertex 21.2157886054755 20.7753992810543 21.5970143820582
      endloop
   endfacet
   facet normal 0 0 1
      outer loop
         vertex 21.2157886054755 20.7753992810543 21.5970143820582
         vertex 21.2180056534134 20.7979093465249 21.5970143820582
         vertex 21.2157886054755 20.7906007189458 21.5970143820582
      endloop
   endfacet
   facet normal 0 0 1
      outer loop
         vertex 21.2157886054755 20.7753992810543 21.5970143820582
         vertex 21.2157886054755 20.7906007189458 21.5970143820582
         vertex 21.21504 20.783 21.5970143820582
      endloop
   endfacet
   facet normal 0 0 1
      outer loop
         vertex 21.2922113945245 20.7753992810543 21.5970143820582
         vertex 21.29296 20.783 21.5970143820582
         vertex 21.2922113945245 20.7906007189458 21.5970143820582
      endloop
   endfacet
endsolid
